<?xml version="1.0" encoding="UTF-8" standalone="no"?>
<!-- Created with Inkscape (http://www.inkscape.org/) -->

<svg
   xmlns:dc="http://purl.org/dc/elements/1.1/"
   xmlns:cc="http://creativecommons.org/ns#"
   xmlns:rdf="http://www.w3.org/1999/02/22-rdf-syntax-ns#"
   xmlns:svg="http://www.w3.org/2000/svg"
   xmlns="http://www.w3.org/2000/svg"
   xmlns:xlink="http://www.w3.org/1999/xlink"
   xmlns:sodipodi="http://sodipodi.sourceforge.net/DTD/sodipodi-0.dtd"
   xmlns:inkscape="http://www.inkscape.org/namespaces/inkscape"
   width="1000pt"
   height="1000pt"
   viewBox="0 0 1250 1250"
   id="svg4758"
   version="1.1"
   inkscape:version="0.91 r13725"
   sodipodi:docname="app_icon.svg"
   inkscape:export-filename="/Users/griffith/temp/icon2000.png"
   inkscape:export-xdpi="144"
   inkscape:export-ydpi="144">
  <defs
     id="defs4760">
    <linearGradient
       inkscape:collect="always"
       id="linearGradient5308">
      <stop
         style="stop-color:#ffffff;stop-opacity:1"
         offset="0"
         id="stop5310" />
      <stop
         style="stop-color:#dce4ef;stop-opacity:1"
         offset="1"
         id="stop5312" />
    </linearGradient>
    <radialGradient
       id="SVGID_2_"
       cx="140.6665"
       cy="78.8013"
       r="82.487396"
       gradientUnits="userSpaceOnUse">
      <stop
         offset="0"
         style="stop-color:#FFE4A3"
         id="stop4746" />
      <stop
         offset="1"
         style="stop-color:#FCB415"
         id="stop4748" />
    </radialGradient>
    <radialGradient
       inkscape:collect="always"
       xlink:href="#linearGradient5308"
       id="radialGradient5379"
       cx="624.9646"
       cy="966.31146"
       fx="624.9646"
       fy="966.31146"
       r="625"
       gradientUnits="userSpaceOnUse"
       gradientTransform="matrix(2.9904408,-5.4437004e-8,0,1.6063798,-1243.9196,-741.90107)" />
  </defs>
  <sodipodi:namedview
     id="base"
     pagecolor="#ffffff"
     bordercolor="#666666"
     borderopacity="1.0"
     inkscape:pageopacity="0.0"
     inkscape:pageshadow="2"
     inkscape:zoom="0.5"
     inkscape:cx="665"
     inkscape:cy="520"
     inkscape:document-units="pt"
     inkscape:current-layer="layer1"
     showgrid="false"
     units="pt"
     inkscape:snap-page="true"
     inkscape:window-width="1582"
     inkscape:window-height="1040"
     inkscape:window-x="0"
     inkscape:window-y="0"
     inkscape:window-maximized="0"
     showguides="true"
     inkscape:guide-bbox="true">
    <sodipodi:guide
       position="625,689"
       orientation="1,0"
       id="guide5381" />
    <inkscape:grid
       type="xygrid"
       id="grid5383" />
  </sodipodi:namedview>
  <metadata
     id="metadata4763">
    <rdf:RDF>
      <cc:Work
         rdf:about="">
        <dc:format>image/svg+xml</dc:format>
        <dc:type
           rdf:resource="http://purl.org/dc/dcmitype/StillImage" />
        <dc:title></dc:title>
      </cc:Work>
    </rdf:RDF>
  </metadata>
  <g
     inkscape:label="Layer 1"
     inkscape:groupmode="layer"
     id="layer1"
     transform="translate(0,197.63779)">
    <rect
       style="fill:url(#radialGradient5379);fill-opacity:1;stroke:none;stroke-width:1.11099994;stroke-linecap:round;stroke-miterlimit:4;stroke-dasharray:none;stroke-dashoffset:25;stroke-opacity:1"
       id="rect5306"
       width="1250"
       height="1250"
       x="0"
       y="-197.63779" />
    <g
       transform="matrix(5.812872,0,0,5.8128044,-192.67346,-72.637794)"
       id="g4741">
      <path
         style="clip-rule:evenodd;fill:#304fa2;fill-rule:evenodd"
         inkscape:connector-curvature="0"
         d="m 116.478,154.971 c -5.296,2.067 -10.679,4.715 -16.171,7.02 12.036,6.407 25.771,10.043 40.358,10.043 15.91,0 30.809,-4.324 43.592,-11.854 -11.934,-6.71 -22.438,-12.681 -34.242,-18.03 -10.708,4.713 -21.855,8.259 -33.537,12.821 z"
         id="path4743" />
      <radialGradient
         id="radialGradient5329"
         cx="140.6665"
         cy="78.8013"
         r="82.487396"
         gradientUnits="userSpaceOnUse">
        <stop
           offset="0"
           style="stop-color:#FFE4A3"
           id="stop5331" />
        <stop
           offset="1"
           style="stop-color:#FCB415"
           id="stop5333" />
      </radialGradient>
      <path
         style="fill:url(#SVGID_2_)"
         inkscape:connector-curvature="0"
         d="m 90.154,155.64 c -0.103,0.105 -0.204,0.212 -0.308,0.316 0.512,0.227 1.021,0.407 1.526,0.555 6.061,1.768 11.621,-1.857 15.242,-4.498 1.969,-11.841 5.121,-22.498 16.767,-24.659 0.393,6.977 -7.292,14.398 -9.862,21.7 6.053,-1.806 10.266,-6.924 16.768,-2.961 0.2,-8.091 0.017,-15.799 -0.986,-22.687 -19.822,3.974 -27.359,20.229 -39.147,32.234 z M 140.665,0 C 93.161,0 54.65,38.511 54.65,86.017 c 0,26.245 11.756,49.739 30.286,65.516 5.589,-14.583 4.121,-30.003 11.815,-40.946 9.973,-14.189 30.099,-13.584 40.439,-27.621 2.417,14.654 -0.191,26.5 -6.903,34.524 4.268,0.336 1.396,7.81 3.944,9.864 2.011,-9.403 5.806,-17.016 10.347,-23.887 -1.092,-0.903 -1.678,-2.167 -0.738,-4.32 -0.994,-1.435 -1.479,-3.807 0,-5.07 -0.754,-2.866 0.484,-5.595 -0.211,-8.025 -0.361,-1.262 -1.482,-2.346 -1.9,-3.591 -0.172,-0.513 0.629,-1.311 -0.633,-1.267 0.195,-0.508 0.848,-0.561 0.633,-1.479 -1.553,0.06 -0.031,-0.692 -0.633,-1.267 -1.338,0.008 -3.811,-0.582 -5.495,-0.423 -0.681,0.065 -1.615,0.701 -2.533,0.845 -0.645,0.102 -1.311,-0.15 -1.899,0 -1.062,0.271 -1.798,1.023 -2.747,1.268 -4.686,1.204 -10.346,0.039 -12.672,-2.958 -0.588,-0.756 -1.707,-2.333 -0.633,-3.59 1.521,0.51 2.257,2.042 3.801,2.746 1.607,0.73 3.334,1.025 5.703,0.633 -1.459,-1.428 -3.576,-2.198 -5.28,-3.591 -1.068,-0.874 -2.057,-2.379 -3.38,-3.591 -2.058,-1.883 -4.003,-2.963 -5.281,-5.491 -1.6,-3.167 -1.781,-6.913 -2.534,-11.406 l 0,-2.324 c 0.006,-0.918 1.639,-2.032 2.111,-0.211 0.159,0.609 -0.068,1.731 0,2.746 0.236,3.509 1.516,7.074 2.958,7.393 -0.359,-1.481 -0.106,-2.158 0.634,-2.958 -0.242,-1.448 -2.054,-3.341 -1.056,-4.646 1.688,0.495 1.562,2.803 3.168,3.38 0.433,-3.317 -1.807,-5.987 -0.634,-8.661 l 0.634,0 0,0.211 c 1.61,1.065 0.853,4.498 2.957,5.069 1.698,-0.906 0.666,-4.545 2.746,-5.069 0.774,0.68 0.448,1.205 1.689,0.634 1.108,0.651 0.513,3.007 1.9,3.379 1.075,-0.415 -0.476,-2.154 0.636,-2.534 6.361,0.893 2.042,14.289 6.336,17.953 0.704,-2.182 1.192,-4.581 3.377,-5.28 0.768,1.365 -0.835,3.544 -0.843,5.492 0.956,-0.58 1.032,0.541 2.112,0.422 0.857,-1.052 1.692,-2.209 2.534,-3.378 0.758,-1.056 1.318,-2.789 3.168,-2.747 0.08,3.178 -1.668,4.528 -2.533,6.76 1.803,0.238 2.654,1.428 3.801,2.323 1.959,-1.351 4.299,-2.321 6.971,-2.958 2.334,0.835 4.547,1.79 6.549,2.958 0.807,-1.531 1.85,-2.07 3.379,-2.323 -0.484,-2.293 -3.307,-4.395 -2.113,-6.971 2.627,1.249 3.529,4.216 5.281,6.336 0.723,-0.468 1.908,-0.389 2.111,-0.844 -0.049,-1.784 -1.377,-3.409 -0.844,-5.07 2.656,0.373 2.463,3.591 3.803,5.28 3.707,-4.389 -0.459,-16.649 6.123,-18.165 0.518,0.54 -0.094,2.207 0.424,2.746 1.518,-0.242 0.844,-2.675 1.902,-3.379 1.477,0.602 0.896,-0.573 2.111,-0.634 1.613,0.851 0.744,4.183 2.535,4.858 1.99,-0.613 1.4,-3.808 2.744,-5.069 l 0.846,0 c 1.002,2.948 -1.662,6.17 -0.424,8.661 1.129,-1.057 1.178,-3.191 3.17,-3.38 0.324,1.487 -1.152,2.905 -1.268,4.646 0.621,0.435 0.934,2.068 0.424,2.958 1.723,-1.047 2.707,-3.479 2.955,-6.337 0.154,-1.746 -0.531,-4.155 1.057,-5.069 0.631,0.074 0.77,0.639 1.055,1.057 l 0,3.379 c -0.537,5.1 -1.705,10.699 -4.434,13.519 -0.844,0.869 -1.963,1.639 -2.959,2.534 -2.643,2.376 -5.65,5.584 -9.082,7.182 2.143,0.438 3.826,0.43 5.492,-0.211 1.852,-0.714 2.568,-3.154 4.438,-2.745 0.598,6.551 -10.789,8.28 -16.055,5.068 -3.344,-0.273 -6.859,-1.56 -10.35,-0.422 0.045,0.731 0.531,1.225 -0.633,1.056 -0.279,0.79 0.881,1.21 0.422,1.478 -0.746,0.633 -0.275,1.356 -0.633,2.325 -0.412,1.109 -1.469,1.975 -1.691,3.167 -0.459,2.453 0.51,4.805 0,7.393 1.102,1.314 1.043,3.94 -0.209,5.069 0.361,0.903 0.516,2.018 0.422,3.38 -1.563,1.606 -3.592,2.744 -5.914,3.591 l -1.689,0 c -0.027,-0.467 -0.896,-0.09 -1.27,-0.211 -0.932,-0.63 -2.285,-1.12 -3.365,-1.828 -0.244,3.28 -3.33,6.61 -1.025,8.689 7.805,-2.295 18.701,-9.329 18.201,-30.954 1.748,-0.205 2.088,0.848 3.875,0.625 1.25,8.875 -3.781,22.223 -8.268,27.371 -5.061,5.809 -11.445,6.813 -17.754,10.85 -2.543,6.665 -3.773,14.643 -4.932,22.687 2.828,-1.774 6.606,-2.599 8.877,-4.931 0.766,-6.687 -1.348,-10.491 -0.988,-16.769 5.498,0.951 10.109,-8.59 11.838,-4.931 -1.418,7.46 -5.871,11.881 -6.904,19.726 l 5.916,0 c 11.025,7.568 23.002,14.186 34.406,21.373 23.1,-15.422 38.318,-41.725 38.318,-71.586 C 226.682,38.511 188.172,0 140.665,0 Z"
         id="path4750" />
    </g>
  </g>
</svg>
