<?xml version="1.0" encoding="UTF-8" standalone="no"?>
<!-- Created with Inkscape (http://www.inkscape.org/) -->

<svg
   xmlns:dc="http://purl.org/dc/elements/1.1/"
   xmlns:cc="http://creativecommons.org/ns#"
   xmlns:rdf="http://www.w3.org/1999/02/22-rdf-syntax-ns#"
   xmlns:svg="http://www.w3.org/2000/svg"
   xmlns="http://www.w3.org/2000/svg"
   xmlns:sodipodi="http://sodipodi.sourceforge.net/DTD/sodipodi-0.dtd"
   xmlns:inkscape="http://www.inkscape.org/namespaces/inkscape"
   id="svg5423"
   version="1.1"
   inkscape:version="0.91 r13725"
   xml:space="preserve"
   width="533.33331"
   height="400"
   viewBox="0 0 533.33331 400"
   sodipodi:docname="BCWF_Logo_CMYK.svg"
   inkscape:export-filename="/Users/griffith/temp/bcwf_360.png"
   inkscape:export-xdpi="60.75"
   inkscape:export-ydpi="60.75"><metadata
     id="metadata5429"><rdf:RDF><cc:Work
         rdf:about=""><dc:format>image/svg+xml</dc:format><dc:type
           rdf:resource="http://purl.org/dc/dcmitype/StillImage" /><dc:title></dc:title></cc:Work></rdf:RDF></metadata><defs
     id="defs5427"><clipPath
       clipPathUnits="userSpaceOnUse"
       id="clipPath5437"><path
         d="M 0,612 1008,612 1008,0 0,0 0,612 Z"
         id="path5439"
         inkscape:connector-curvature="0" /></clipPath></defs><sodipodi:namedview
     pagecolor="#ffffff"
     bordercolor="#666666"
     borderopacity="1"
     objecttolerance="10"
     gridtolerance="10"
     guidetolerance="10"
     inkscape:pageopacity="0"
     inkscape:pageshadow="2"
     inkscape:window-width="1759"
     inkscape:window-height="1036"
     id="namedview5425"
     showgrid="false"
     fit-margin-top="50"
     fit-margin-left="50"
     fit-margin-right="50"
     fit-margin-bottom="50"
     units="px"
     inkscape:zoom="0.74975767"
     inkscape:cx="262.826"
     inkscape:cy="207.72282"
     inkscape:window-x="0"
     inkscape:window-y="0"
     inkscape:window-maximized="0"
     inkscape:current-layer="g5431" /><g
     id="g5431"
     inkscape:groupmode="layer"
     inkscape:label="BCWF_Logo_CMYK"
     transform="matrix(1.25,0,0,-1.25,-367.174,581.24968)"><g
       id="g5433"><g
         id="g5435"
         clip-path="url(#clipPath5437)"><g
           id="g5441"
           transform="translate(468.1392,427.0786)"><path
             d="m 0,0 2.88,0 c 3.532,-0.079 6.143,-2.213 8.604,-4.276 5.226,-4.383 10.962,-7.996 16.63,-11.726 5.771,-3.799 11.428,-7.775 17.361,-11.322 1.957,-1.17 4.035,-2.114 6.097,-3.082 2.081,-0.977 4.057,-0.592 5.936,0.542 1.061,0.64 2.004,1.442 2.883,2.326 2.93,2.944 5.893,5.838 9.099,8.503 3.048,2.535 5.995,2.232 9.177,0.518 3.495,-1.881 5.845,-4.891 8.077,-8.029 1.318,-1.854 2.509,-3.807 4.135,-5.422 1.677,-1.666 3.711,-2.882 5.569,-4.322 0.584,-0.453 1.275,-0.356 1.952,-0.126 2.405,0.82 4.628,2.046 6.659,3.51 2.955,2.129 6.04,4.042 9.114,5.975 2.336,1.468 4.564,3.091 6.86,4.614 4.268,2.833 8.651,5.416 13.402,7.398 6.052,2.525 11.707,1.482 17.025,-1.78 5.585,-3.425 10.624,-7.646 15.895,-11.531 5.397,-3.979 10.625,-8.191 16.322,-11.762 2.609,-1.635 4.865,-3.756 7.168,-5.783 4.242,-3.736 8.783,-7.027 13.697,-9.82 1.595,-0.908 3.133,-1.913 4.771,-2.756 1.437,-0.739 2.592,-1.857 3.668,-3.05 0.698,-0.774 0.709,-1.742 0.739,-2.706 0,-34.351 0,-68.698 -0.001,-103.046 0,-0.48 0.01,-0.961 -0.009,-1.439 -0.297,-1.086 -1.285,-0.981 -2.059,-1.098 -3.477,-0.531 -6.946,-1.105 -10.416,-1.68 -9.387,-1.558 -18.728,-3.361 -28.068,-5.173 -11.536,-2.237 -23.035,-4.68 -34.649,-6.504 -7.025,-1.104 -14.065,-2.108 -21.147,-2.807 -5.644,-0.555 -11.294,-0.98 -16.962,-1.248 -2.719,-0.127 -5.443,0.019 -8.146,-0.209 -4.276,-0.359 -8.552,-0.174 -12.826,-0.184 -4.354,-0.011 -8.709,0.188 -13.062,0.28 -3.99,0.084 -7.984,0.257 -11.971,0.455 -6.101,0.302 -12.203,0.597 -18.3,0.97 -5.937,0.364 -11.875,0.741 -17.806,1.206 -6.686,0.523 -13.375,1.027 -20.061,1.568 -4.615,0.375 -9.237,0.709 -13.855,1.068 -5.851,0.453 -11.703,0.905 -17.555,1.334 -4.141,0.305 -8.289,0.539 -12.431,0.819 -4.9,0.33 -9.809,0.5 -14.706,0.871 -1.949,0.148 -3.913,0.201 -5.863,0.238 -3.836,0.074 -7.674,0.197 -11.502,0.35 -8.357,0.337 -16.71,0.115 -25.064,0.16 -5.192,0.029 -10.384,-0.248 -15.568,-0.512 -4.862,-0.248 -9.725,-0.566 -14.571,-1.074 -0.574,-0.061 -1.126,-0.03 -1.522,0.482 l 0,116.16 c 0.404,2.662 2.584,3.787 4.49,5.121 1.54,1.078 3.263,1.871 4.944,2.682 3.122,1.508 5.907,3.491 8.622,5.596 3.222,2.499 6.733,4.58 10.04,6.944 4.508,3.221 9.495,5.575 14.234,8.375 1.983,1.172 4.2,1.762 6.479,1.994 2.418,0.246 4.547,-0.703 6.546,-1.933 2.593,-1.595 4.903,-3.582 7.191,-5.562 2.909,-2.515 5.846,-2.739 9.109,-0.828 2.071,1.212 3.877,2.81 5.984,3.96 3.136,1.712 5.659,4.283 8.67,6.178 5.474,3.447 11.046,6.729 16.651,9.953 4.432,2.551 8.857,5.116 12.937,8.206 2.318,1.755 4.36,3.856 6.707,5.592 2.99,2.211 6.221,4.05 9.296,6.129 C -1.756,-0.21 -0.82,-0.288 0,0"
             style="fill:#38b73e;fill-opacity:1;fill-rule:evenodd;stroke:none"
             id="path5443"
             inkscape:connector-curvature="0" /></g><g
           id="g5445"
           transform="translate(681.9795,206.5195)"><path
             d="m 0,0 0,-1.201 c -0.217,-0.32 -0.153,-0.705 -0.174,-1.049 -0.304,-5.225 -3.218,-9 -6.913,-12.283 -3.561,-3.168 -7.759,-5.162 -12.38,-6.299 -1.644,-0.404 -3.321,-0.463 -4.992,-0.516 -8.472,-0.271 -16.948,-0.146 -25.422,-0.123 -90.848,0.258 -181.697,0.039 -272.545,0.098 -6.565,0.004 -12.419,1.988 -17.605,5.943 -3.229,2.463 -5.715,5.557 -7.339,9.311 -0.649,1.498 -0.472,3.139 -0.87,4.678 l 0,0.72 c 0.19,0.481 0.19,0.959 0,1.44 l 0,35.281 c 0.414,0.551 0.962,0.762 1.655,0.783 3.712,0.117 7.421,0.344 11.127,0.537 10.268,0.537 20.539,0.493 30.808,0.399 5.829,-0.053 11.662,-0.239 17.487,-0.494 4.786,-0.209 9.575,-0.393 14.354,-0.705 5.577,-0.366 11.157,-0.684 16.73,-1.102 3.782,-0.283 7.568,-0.533 11.35,-0.816 4.578,-0.344 9.154,-0.723 13.73,-1.1 4.377,-0.359 8.757,-0.695 13.134,-1.059 4.416,-0.367 8.833,-0.732 13.249,-1.091 3.541,-0.29 7.085,-0.565 10.629,-0.825 3.902,-0.285 7.803,-0.578 11.704,-0.865 2.907,-0.213 5.819,-0.365 8.726,-0.558 3.585,-0.241 7.176,-0.362 10.758,-0.655 1.949,-0.158 3.911,-0.172 5.864,-0.246 9.109,-0.348 18.227,-0.445 27.338,-0.244 5.866,0.129 11.737,0.32 17.594,0.703 10.122,0.658 20.224,1.549 30.298,2.768 14.095,1.705 28.065,4.131 41.994,6.855 10.631,2.082 21.254,4.194 31.843,6.477 2.031,0.439 4.108,0.613 6.174,0.838 0.546,0.058 1.139,0.123 1.511,-0.459 0.137,-1.778 0.027,-3.557 0.063,-5.334 0,-12.799 -0.002,-25.596 0.006,-38.393 C -0.114,0.943 -0.232,0.455 0,0"
             style="fill:#0069cc;fill-opacity:1;fill-rule:evenodd;stroke:none"
             id="path5447"
             inkscape:connector-curvature="0" /></g><g
           id="g5449"
           transform="translate(681.9795,258.3594)"><path
             d="m 0,0 -0.118,-0.018 -0.118,0.012 c -0.002,34.93 -0.005,69.859 -0.006,104.787 0,0.12 0.016,0.239 0.025,0.358 0.072,-0.016 0.144,-0.023 0.217,-0.019 L 0,0 Z"
             style="fill:#92d79a;fill-opacity:1;fill-rule:evenodd;stroke:none"
             id="path5451"
             inkscape:connector-curvature="0" /></g><g
           id="g5453"
           transform="translate(681.9795,206.5195)"><path
             d="m 0,0 c -0.278,0.293 -0.238,0.664 -0.238,1.02 0,12.753 0.003,25.507 0.007,38.261 0,0.199 0.03,0.399 0.046,0.598 0.084,0.092 0.144,0.072 0.185,-0.039 L 0,0 Z"
             style="fill:#5f7abd;fill-opacity:1;fill-rule:evenodd;stroke:none"
             id="path5455"
             inkscape:connector-curvature="0" /></g><g
           id="g5457"
           transform="translate(681.9795,246.3594)"><path
             d="M 0,0 C -0.059,0.029 -0.12,0.043 -0.185,0.039 L -0.252,5.266 C -0.168,5.271 -0.084,5.275 0,5.279 L 0,0 Z"
             style="fill:#8f9ccf;fill-opacity:1;fill-rule:evenodd;stroke:none"
             id="path5459"
             inkscape:connector-curvature="0" /></g><g
           id="g5461"
           transform="translate(333.7393,207.2383)"><path
             d="M 0,0 C 0.323,-0.48 0.365,-0.959 0,-1.439 L 0,0 Z"
             style="fill:#617bbd;fill-opacity:1;fill-rule:evenodd;stroke:none"
             id="path5463"
             inkscape:connector-curvature="0" /></g><g
           id="g5465"
           transform="translate(572.1221,294.0176)"><path
             d="m 0,0 c 0.711,7.389 2.771,14.506 4.302,21.722 2.462,11.595 5.077,23.157 7.588,34.742 0.186,0.86 0.451,1.177 1.378,1.17 C 19.347,57.589 25.426,57.59 31.506,57.632 32.482,57.639 32.6,57.423 32.365,56.5 27.18,36.12 22.029,15.731 16.87,-4.656 c -1.459,-5.764 -2.941,-11.522 -4.361,-17.295 -0.19,-0.772 -0.467,-1.01 -1.258,-1.006 -6.72,0.031 -13.439,0.021 -20.158,0.012 -0.556,-0.002 -0.921,0.015 -1.094,0.722 -3.468,14.188 -7.175,28.317 -10.482,42.545 -0.465,1.995 -0.699,4.045 -1.169,6.082 -0.288,-1.798 -0.5,-3.612 -0.879,-5.392 -1.676,-7.886 -3.813,-15.662 -5.722,-23.492 -1.588,-6.512 -3.261,-13.004 -4.852,-19.516 -0.175,-0.717 -0.414,-0.965 -1.172,-0.961 -6.799,0.031 -13.599,0.051 -20.398,-0.016 -1.09,-0.011 -1.104,0.618 -1.267,1.287 -3.292,13.534 -6.579,27.067 -9.872,40.599 -3.012,12.368 -6.032,24.734 -9.047,37.101 -0.056,0.233 -0.049,0.49 -0.145,0.703 -0.384,0.853 0.073,0.921 0.757,0.903 1.199,-0.033 2.399,-0.009 3.6,-0.009 5,0 9.999,-0.025 14.998,0.022 0.922,0.009 1.305,-0.217 1.494,-1.172 2.239,-11.317 4.531,-22.625 6.801,-33.936 1.162,-5.794 2.332,-11.586 3.445,-17.388 0.322,-1.68 0.459,-3.393 0.723,-5.416 0.382,2.187 0.606,4.086 1.055,5.931 3.797,15.586 7.636,31.163 11.463,46.743 0.352,1.434 0.779,2.853 1.046,4.302 0.145,0.789 0.504,0.93 1.211,0.927 4.679,-0.025 9.358,-0.029 14.038,0.002 0.75,0.005 0.998,-0.248 1.171,-0.973 C -9.885,42.675 -6.518,28.709 -3.189,14.734 -2.028,9.855 -0.614,5.027 0,0"
             style="fill:#ffffff;fill-opacity:1;fill-rule:evenodd;stroke:none"
             id="path5467"
             inkscape:connector-curvature="0" /></g><g
           id="g5469"
           transform="translate(400.8076,313.2651)"><path
             d="m 0,0 c 3.634,-1.183 6.564,-3.036 8.753,-5.929 3.03,-4.004 4.135,-8.588 3.89,-13.528 -0.517,-10.439 -6.22,-17.605 -16.497,-20.783 -4.032,-1.246 -8.166,-1.922 -12.383,-1.935 -10.078,-0.035 -20.157,0.002 -30.235,-0.033 -0.931,-0.004 -1.18,0.222 -1.179,1.169 0.028,26.077 0.027,52.152 0.002,78.228 -10e-4,0.932 0.225,1.2 1.178,1.196 9.879,-0.035 19.758,0.06 29.635,-0.052 6.221,-0.071 12.258,-1.165 17.6,-4.647 C 7.297,29.428 9.893,23.206 9.325,15.617 8.831,9.015 5.852,3.753 0,0"
             style="fill:#ffffff;fill-opacity:1;fill-rule:evenodd;stroke:none"
             id="path5471"
             inkscape:connector-curvature="0" /></g><g
           id="g5473"
           transform="translate(461.8447,268.3711)"><path
             d="m 0,0 c -10.531,0.061 -20.106,2.932 -28.202,9.887 -7.363,6.324 -11.632,14.449 -13.184,23.955 -1.681,10.295 -0.399,20.193 5.018,29.263 6.59,11.036 16.435,17.449 29.049,19.501 11.104,1.807 21.631,0.001 31.374,-5.782 2.031,-1.205 3.915,-2.621 5.655,-4.23 0.551,-0.509 0.691,-0.894 0.25,-1.598 -2.751,-4.403 -5.463,-8.83 -8.153,-13.271 -0.401,-0.663 -0.626,-0.746 -1.276,-0.228 -4.928,3.923 -10.382,6.784 -16.727,7.47 -13.137,1.42 -23.47,-6.152 -25.131,-19.263 -0.978,-7.716 0.791,-14.786 6.098,-20.577 6.41,-6.994 14.471,-8.467 23.369,-5.951 5.25,1.484 9.714,4.422 13.649,8.16 0.574,0.545 0.816,0.586 1.292,-0.1 3.005,-4.336 6.039,-8.65 9.11,-12.939 0.492,-0.688 0.347,-1.033 -0.195,-1.565 C 25.22,6.08 17.083,2.15 7.769,0.564 5.202,0.127 2.612,-0.057 0,0"
             style="fill:#ffffff;fill-opacity:1;fill-rule:evenodd;stroke:none"
             id="path5475"
             inkscape:connector-curvature="0" /></g><g
           id="g5477"
           transform="translate(612.9502,311.3901)"><path
             d="m 0,0 c 0,12.959 0.014,25.917 -0.025,38.876 -0.004,1.107 0.293,1.39 1.391,1.387 15.559,-0.036 31.117,-0.036 46.676,0 1.09,0.003 1.403,-0.263 1.389,-1.375 -0.064,-4.839 -0.055,-9.68 -0.003,-14.519 0.01,-0.928 -0.272,-1.103 -1.14,-1.1 -9.078,0.032 -18.158,0.003 -27.237,0.044 -0.985,0.004 -1.261,-0.213 -1.248,-1.228 0.059,-4.799 0.055,-9.599 0.002,-14.398 -0.011,-0.98 0.208,-1.262 1.227,-1.255 7.359,0.048 14.719,-0.005 22.077,0.057 1.138,0.01 1.285,-0.376 1.276,-1.358 -0.046,-4.759 -0.051,-9.519 0.002,-14.279 0.01,-1.047 -0.199,-1.412 -1.351,-1.402 -7.279,0.058 -14.558,-0.004 -21.838,0.062 -1.206,0.012 -1.401,-0.345 -1.395,-1.455 0.047,-9.039 0.003,-18.078 0.056,-27.117 0.007,-1.104 -0.317,-1.283 -1.324,-1.275 -5.72,0.048 -11.439,0.064 -17.158,-0.01 -1.213,-0.016 -1.406,0.361 -1.402,1.469 C 0.014,-25.917 0,-12.958 0,0"
             style="fill:#ffffff;fill-opacity:1;fill-rule:evenodd;stroke:none"
             id="path5479"
             inkscape:connector-curvature="0" /></g><g
           id="g5481"
           transform="translate(395.5942,207.7598)"><path
             d="m 0,0 c 0.861,3.223 1.699,6.258 2.468,9.309 0.189,0.75 0.486,1 1.278,0.992 C 6.8,10.275 6.806,10.311 7.612,7.375 8.254,5.033 8.881,2.688 9.51,0.359 9.957,0.324 9.868,0.643 9.917,0.846 c 0.706,2.865 1.431,5.728 2.092,8.605 0.143,0.623 0.358,0.885 1.014,0.84 1.031,-0.072 2.532,0.324 2.981,-0.203 C 16.537,9.461 15.68,8.18 15.405,7.189 14.314,3.271 13.164,-0.631 12.076,-4.551 11.868,-5.303 11.601,-5.648 10.723,-5.635 7.896,-5.592 7.889,-5.639 7.098,-2.943 6.346,-0.383 5.609,2.184 4.768,5.082 3.944,2.293 3.213,-0.182 2.482,-2.656 2.471,-2.695 2.467,-2.736 2.456,-2.773 1.595,-5.754 1.595,-5.732 -1.51,-5.625 c -0.594,0.02 -0.835,0.229 -0.986,0.764 -1.35,4.799 -2.713,9.593 -4.087,14.384 -0.166,0.577 -0.035,0.739 0.583,0.772 3.378,0.176 3.375,0.193 4.158,-3.072 C -1.293,4.934 -0.741,2.646 -0.187,0.359 -0.169,0.285 -0.116,0.221 0,0"
             style="fill:#ffffff;fill-opacity:1;fill-rule:evenodd;stroke:none"
             id="path5483"
             inkscape:connector-curvature="0" /></g><g
           id="g5485"
           transform="translate(660.3789,208.2246)"><path
             d="m 0,0 c 0,2.863 0.058,5.727 -0.029,8.588 -0.033,1.084 0.286,1.33 1.322,1.299 2.511,-0.073 2.513,-0.02 2.513,-2.502 0,-4.08 -0.022,-8.16 0.016,-12.24 0.008,-0.874 -0.165,-1.135 -1.141,-1.272 -2.526,-0.353 -4.015,0.563 -5.139,2.854 -1.208,2.461 -2.836,4.718 -4.289,7.078 -0.435,-0.2 -0.235,-0.565 -0.236,-0.83 -0.007,-2.678 -0.01,-5.36 0.038,-8.037 0.013,-0.743 -0.143,-1.032 -0.97,-1.034 -2.85,-0.006 -2.85,-0.041 -2.85,2.764 0,4.039 0.021,8.078 -0.017,12.117 -0.008,0.817 0.22,0.996 1.047,1.117 2.534,0.371 4.102,-0.496 5.241,-2.867 1.185,-2.471 2.828,-4.722 4.271,-7.07 L 0,0 Z"
             style="fill:#ffffff;fill-opacity:1;fill-rule:evenodd;stroke:none"
             id="path5487"
             inkscape:connector-curvature="0" /></g><g
           id="g5489"
           transform="translate(628.6543,210.125)"><path
             d="M 0,0 C -0.021,4.963 3.473,8.367 8.612,8.393 13.686,8.418 17.303,5.088 17.325,0.373 17.351,-4.941 13.979,-8.393 8.744,-8.406 3.568,-8.42 0.022,-5.012 0,0"
             style="fill:#ffffff;fill-opacity:1;fill-rule:evenodd;stroke:none"
             id="path5491"
             inkscape:connector-curvature="0" /></g><g
           id="g5493"
           transform="translate(435.8398,210.1484)"><path
             d="M 0,0 C 0,2.318 -0.006,4.637 0.006,6.957 0.008,7.354 -0.167,7.914 0.566,7.887 3.238,7.789 5.923,8.139 8.582,7.65 12.363,6.955 14.529,4.623 14.894,0.869 15.261,-2.916 13.435,-5.973 9.981,-7.299 6.887,-8.486 3.653,-7.854 0.479,-7.977 -0.155,-8 0.01,-7.437 0.007,-7.078 -0.006,-4.719 0,-2.359 0,0"
             style="fill:#ffffff;fill-opacity:1;fill-rule:evenodd;stroke:none"
             id="path5495"
             inkscape:connector-curvature="0" /></g><g
           id="g5497"
           transform="translate(540.3789,210.1172)"><path
             d="M 0,0 C 0,2.316 0.024,4.635 -0.014,6.951 -0.025,7.678 0.102,8.025 0.946,7.984 3.415,7.867 5.9,8.158 8.357,7.717 12.422,6.988 14.821,4.385 14.88,0.65 14.951,-3.867 12.77,-6.777 8.595,-7.678 5.948,-8.248 3.259,-7.854 0.591,-7.967 -0.138,-7.996 0.004,-7.486 0.003,-7.072 -0.003,-4.715 0,-2.357 0,0"
             style="fill:#ffffff;fill-opacity:1;fill-rule:evenodd;stroke:none"
             id="path5499"
             inkscape:connector-curvature="0" /></g><g
           id="g5501"
           transform="translate(360.8799,210.5312)"><path
             d="M 0,0 C 2.186,-0.914 3.107,-2.197 2.99,-4.014 2.857,-6.08 1.652,-7.5 -0.472,-8.076 c -1.806,-0.488 -3.655,-0.281 -5.487,-0.291 -1.108,-0.006 -2.539,-0.475 -3.24,0.189 -0.711,0.674 -0.209,2.117 -0.218,3.221 -0.029,3.758 0.013,7.516 -0.028,11.271 -0.01,0.879 0.14,1.27 1.149,1.219 C -6.462,7.441 -4.62,7.512 -2.782,7.504 -2.383,7.502 -1.977,7.502 -1.588,7.428 0.231,7.08 1.81,6.385 2.242,4.342 2.65,2.412 1.901,0.992 0,0"
             style="fill:#ffffff;fill-opacity:1;fill-rule:evenodd;stroke:none"
             id="path5503"
             inkscape:connector-curvature="0" /></g><g
           id="g5505"
           transform="translate(586.9414,202.1523)"><path
             d="M 0,0 C -1.511,0 -2.782,0.027 -4.052,-0.012 -4.631,-0.027 -4.784,0.359 -4.993,0.742 -5.874,2.352 -6.78,3.947 -7.626,5.576 -7.9,6.104 -8.212,6.408 -8.816,6.277 -9.494,6.131 -9.198,5.574 -9.208,5.201 -9.244,3.766 -9.249,2.326 -9.212,0.889 -9.194,0.225 -9.399,0.004 -10.09,-0.018 c -3.013,-0.095 -3.012,-0.119 -3.012,2.836 0,3.994 0.024,7.989 -0.018,11.983 -0.01,0.871 0.193,1.193 1.123,1.154 2.033,-0.088 4.075,0.014 6.107,-0.098 3.336,-0.181 5.099,-2.066 4.973,-5.164 C -0.984,9.008 -1.82,7.795 -3.323,7.135 -4.091,6.797 -4,6.521 -3.638,5.945 -2.45,4.061 -1.309,2.148 0,0"
             style="fill:#ffffff;fill-opacity:1;fill-rule:evenodd;stroke:none"
             id="path5507"
             inkscape:connector-curvature="0" /></g><g
           id="g5509"
           transform="translate(588.7891,202.1523)"><path
             d="m 0,0 c 1.264,3.016 2.463,5.879 3.662,8.74 0.88,2.098 1.78,4.188 2.628,6.297 0.251,0.629 0.551,0.916 1.287,0.918 2.868,0.004 2.868,0.035 3.977,-2.637 1.695,-4.091 3.375,-8.189 5.101,-12.269 0.341,-0.803 0.332,-1.192 -0.671,-1.053 -0.157,0.022 -0.323,0.025 -0.478,0 -1.977,-0.338 -3.407,0.149 -3.735,2.397 -0.093,0.636 -0.56,0.753 -1.153,0.738 C 9.26,3.094 7.896,3.059 6.54,3.141 5.659,3.193 5.292,2.857 5.015,2.057 4.297,-0.014 4.257,0 2.049,0 L 0,0 Z"
             style="fill:#ffffff;fill-opacity:1;fill-rule:evenodd;stroke:none"
             id="path5511"
             inkscape:connector-curvature="0" /></g><g
           id="g5513"
           transform="translate(489.6001,210.0937)"><path
             d="M 0,0 C 0,2.357 0.019,4.715 -0.012,7.07 -0.021,7.734 0.168,7.969 0.863,7.959 3.858,7.926 6.854,7.93 9.85,7.957 10.483,7.963 10.75,7.842 10.766,7.119 10.818,4.684 10.852,4.686 8.428,4.686 7.19,4.686 5.95,4.65 4.714,4.697 3.967,4.727 3.755,4.443 3.774,3.725 3.836,1.303 3.537,1.801 5.726,1.756 7.003,1.73 8.283,1.719 9.56,1.764 c 0.689,0.025 0.868,-0.227 0.88,-0.895 0.044,-2.285 0.071,-2.285 -2.219,-2.285 -1.198,0 -2.397,-0.021 -3.594,0.01 C 4.042,-1.391 3.795,-1.527 3.769,-2.189 3.668,-4.637 3.64,-4.635 6.104,-4.635 c 1.438,0 2.876,-0.017 4.314,0.006 0.548,0.01 0.746,-0.154 0.778,-0.742 0.137,-2.572 0.16,-2.57 -2.405,-2.57 -2.597,0 -5.193,0.027 -7.789,-0.018 -0.79,-0.014 -1.033,0.227 -1.018,1.01 C 0.028,-4.633 0,-2.316 0,0"
             style="fill:#ffffff;fill-opacity:1;fill-rule:evenodd;stroke:none"
             id="path5515"
             inkscape:connector-curvature="0" /></g><g
           id="g5517"
           transform="translate(558.8945,210.1855)"><path
             d="M 0,0 C 0,2.316 0.024,4.635 -0.015,6.951 -0.027,7.668 0.168,7.924 0.918,7.916 3.914,7.879 6.91,7.881 9.906,7.914 10.588,7.922 10.771,7.713 10.782,7.037 10.821,4.594 10.849,4.594 8.473,4.594 7.194,4.594 5.915,4.562 4.639,4.605 3.957,4.629 3.764,4.393 3.753,3.719 3.719,1.66 3.688,1.66 5.736,1.66 c 1.279,0 2.557,-0.019 3.835,0.008 0.555,0.012 0.742,-0.164 0.776,-0.742 0.139,-2.434 0.162,-2.434 -2.302,-2.434 -1.198,0 -2.397,-0.019 -3.595,0.01 -0.522,0.012 -0.658,-0.18 -0.693,-0.69 -0.174,-2.474 -0.192,-2.474 2.264,-2.474 1.398,0 2.797,-0.039 4.193,0.016 0.758,0.029 0.932,-0.26 0.945,-0.965 0.044,-2.424 0.07,-2.422 -2.346,-2.422 l -7.07,0 C 0,-8.033 0,-8.033 0,-6.23 L 0,0 Z"
             style="fill:#ffffff;fill-opacity:1;fill-rule:evenodd;stroke:none"
             id="path5519"
             inkscape:connector-curvature="0" /></g><g
           id="g5521"
           transform="translate(525.4521,210.1699)"><path
             d="M 0,0 C 0,2.277 0.03,4.555 -0.017,6.832 -0.032,7.621 0.121,7.953 1.012,7.937 3.928,7.881 6.846,7.885 9.762,7.936 10.584,7.949 10.76,7.656 10.763,6.904 10.771,4.609 10.799,4.609 8.513,4.609 7.234,4.609 5.954,4.58 4.677,4.619 4.012,4.639 3.697,4.424 3.786,3.736 3.797,3.658 3.786,3.578 3.787,3.498 3.807,1.322 3.618,1.707 5.532,1.68 6.811,1.66 8.09,1.646 9.367,1.687 c 0.691,0.024 0.979,-0.138 0.986,-0.916 0.019,-2.263 0.057,-2.263 -2.247,-2.263 -1.158,0 -2.318,-0.024 -3.475,0.01 C 4.045,-1.465 3.798,-1.6 3.77,-2.262 3.667,-4.646 3.639,-4.646 6.023,-4.646 c 1.399,0 2.798,-0.024 4.196,0.011 0.631,0.016 0.91,-0.121 0.934,-0.844 0.084,-2.541 0.115,-2.539 -2.452,-2.539 -2.556,0 -5.115,0.036 -7.671,-0.021 -0.867,-0.02 -1.066,0.271 -1.048,1.086 C 0.033,-4.637 0,-2.318 0,0"
             style="fill:#ffffff;fill-opacity:1;fill-rule:evenodd;stroke:none"
             id="path5523"
             inkscape:connector-curvature="0" /></g><g
           id="g5525"
           transform="translate(375.1509,201.7031)"><path
             d="m 0,0 c -3.508,0.104 -6.329,1.453 -7.772,4.789 -1.386,3.201 -1.163,6.406 1.158,9.117 2.427,2.834 5.663,3.362 9.187,2.573 C 2.768,16.436 2.958,16.373 3.146,16.307 4.212,15.934 5.678,15.518 5.825,14.541 5.971,13.566 4.465,12.949 3.763,12.105 3.433,11.709 3.248,12.061 3.001,12.248 1.059,13.73 -1.482,13.545 -3.057,11.816 -4.735,9.977 -4.704,6.695 -2.992,4.9 -1.412,3.242 1.175,3.141 3.061,4.738 3.519,5.127 3.751,5.111 4.116,4.709 4.464,4.324 4.864,3.986 5.238,3.627 6.358,2.549 6.362,2.502 5.069,1.555 3.565,0.453 1.868,-0.035 0,0"
             style="fill:#ffffff;fill-opacity:1;fill-rule:evenodd;stroke:none"
             id="path5527"
             inkscape:connector-curvature="0" /></g><g
           id="g5529"
           transform="translate(511.374,210.1504)"><path
             d="M 0,0 C 0,2.318 0.028,4.639 -0.017,6.957 -0.03,7.689 0.176,7.916 0.922,7.904 3.839,7.865 6.758,7.867 9.676,7.904 10.369,7.912 10.533,7.693 10.543,7.023 10.576,4.562 10.603,4.562 8.135,4.562 7.016,4.562 5.896,4.537 4.777,4.572 4.172,4.592 3.957,4.41 3.93,3.771 3.826,1.373 3.801,1.373 6.172,1.373 c 0.76,0 1.519,0.01 2.279,-0.002 1.847,-0.025 1.589,0.246 1.587,-1.574 C 10.035,-2.068 10.348,-1.826 8.394,-1.85 7.435,-1.861 6.475,-1.844 5.516,-1.854 3.744,-1.871 3.964,-1.656 3.946,-3.482 3.937,-4.602 3.945,-5.723 3.944,-6.842 3.943,-7.08 4.034,-7.412 3.912,-7.545 2.981,-8.563 1.77,-7.76 0.704,-7.986 0.101,-8.113 -0.01,-7.717 -0.007,-7.195 0.01,-4.797 0.001,-2.398 0,0"
             style="fill:#feffff;fill-opacity:1;fill-rule:evenodd;stroke:none"
             id="path5531"
             inkscape:connector-curvature="0" /></g><g
           id="g5533"
           transform="translate(475.6143,210.166)"><path
             d="M 0,0 C 0,2.316 0.03,4.635 -0.018,6.951 -0.033,7.699 0.201,7.898 0.931,7.889 3.847,7.85 6.764,7.852 9.68,7.889 10.378,7.898 10.533,7.668 10.542,7.006 10.575,4.547 10.601,4.547 8.134,4.547 6.975,4.547 5.816,4.52 4.658,4.557 4.026,4.578 3.858,4.342 3.837,3.727 3.753,1.357 3.73,1.357 6.108,1.357 6.867,1.357 7.629,1.396 8.385,1.344 8.911,1.307 9.752,1.668 9.903,1.092 10.127,0.236 10.015,-0.729 9.919,-1.635 9.884,-1.965 9.376,-1.859 9.071,-1.863 7.713,-1.873 6.353,-1.914 4.997,-1.85 4.13,-1.811 3.777,-2.037 3.832,-2.973 3.911,-4.326 3.824,-5.689 3.864,-7.047 3.884,-7.725 3.756,-8.023 2.964,-8.037 -0.001,-8.086 0,-8.119 0,-5.154 L 0,0 Z"
             style="fill:#ffffff;fill-opacity:1;fill-rule:evenodd;stroke:none"
             id="path5535"
             inkscape:connector-curvature="0" /></g><g
           id="g5537"
           transform="translate(611.8818,218.0391)"><path
             d="m 0,0 c 1.837,0 3.676,-0.025 5.512,0.014 0.667,0.013 0.884,-0.18 0.902,-0.868 0.064,-2.472 0.091,-2.472 -2.422,-2.472 -2.055,0 -2.055,0 -2.055,-2.063 0,-3.156 -0.031,-6.312 0.021,-9.466 0.014,-0.856 -0.25,-1.057 -1.072,-1.053 -2.835,0.017 -2.835,-0.016 -2.835,2.756 0,2.916 -0.028,5.832 0.016,8.748 0.013,0.808 -0.171,1.168 -1.047,1.093 -0.873,-0.072 -1.757,0.01 -2.635,-0.023 -0.574,-0.021 -0.839,0.096 -0.866,0.771 C -6.587,0 -6.616,0 -4.075,0 L 0,0 Z"
             style="fill:#ffffff;fill-opacity:1;fill-rule:evenodd;stroke:none"
             id="path5539"
             inkscape:connector-curvature="0" /></g><g
           id="g5541"
           transform="translate(458.2993,211.8008)"><path
             d="m 0,0 c 0,-1.797 0.03,-3.594 -0.015,-5.391 -0.018,-0.687 0.199,-0.886 0.875,-0.865 1.476,0.047 2.956,-0.008 4.432,0.024 0.588,0.013 0.832,-0.123 0.864,-0.782 0.13,-2.636 0.155,-2.634 -2.492,-2.634 -2.196,0 -4.393,0.021 -6.589,-0.014 -0.683,-0.01 -0.986,0.117 -0.98,0.906 0.036,4.711 0.03,9.424 0.005,14.135 -0.004,0.68 0.207,0.861 0.877,0.875 C 0,6.32 0,6.342 0,3.355 L 0,0 Z"
             style="fill:#ffffff;fill-opacity:1;fill-rule:evenodd;stroke:none"
             id="path5543"
             inkscape:connector-curvature="0" /></g><g
           id="g5545"
           transform="translate(422.9722,210.168)"><path
             d="M 0,0 C 0,2.316 0.028,4.633 -0.016,6.947 -0.03,7.68 0.178,7.885 0.92,7.891 c 3.014,0.027 3.014,0.056 3.014,-2.92 0,-2.756 0.043,-5.512 -0.023,-8.266 -0.024,-1.002 0.156,-1.439 1.285,-1.342 1.347,0.117 2.713,0.004 4.07,0.037 0.599,0.016 0.819,-0.146 0.843,-0.795 0.1,-2.623 0.126,-2.621 -2.496,-2.621 -2.156,0 -4.315,0.055 -6.468,-0.025 C 0.158,-8.078 -0.043,-7.73 -0.02,-6.826 0.04,-4.553 0,-2.275 0,0"
             style="fill:#ffffff;fill-opacity:1;fill-rule:evenodd;stroke:none"
             id="path5547"
             inkscape:connector-curvature="0" /></g><g
           id="g5549"
           transform="translate(624.999,209.9961)"><path
             d="m 0,0 c 0,-2.314 -0.018,-4.631 0.011,-6.945 0.008,-0.651 -0.163,-0.895 -0.867,-0.918 -3.09,-0.104 -3.089,-0.127 -3.089,2.988 0,3.953 0.022,7.904 -0.019,11.857 -0.008,0.817 0.185,1.088 1.048,1.084 C 0,8.051 0.001,8.086 0.001,5.15 0.001,3.434 0.001,1.717 0,0"
             style="fill:#fefefe;fill-opacity:1;fill-rule:evenodd;stroke:none"
             id="path5551"
             inkscape:connector-curvature="0" /></g><g
           id="g5553"
           transform="translate(467.2139,210.2422)"><path
             d="M 0,0 C 0,2.277 0.021,4.555 -0.013,6.83 -0.022,7.508 0.09,7.807 0.885,7.82 4.011,7.867 4.011,7.9 4.011,4.756 4.011,0.84 3.98,-3.074 4.033,-6.988 4.046,-7.91 3.764,-8.121 2.885,-8.113 0,-8.086 0,-8.121 0,-5.273 L 0,0 Z"
             style="fill:#fefefe;fill-opacity:1;fill-rule:evenodd;stroke:none"
             id="path5555"
             inkscape:connector-curvature="0" /></g><g
           id="g5557"
           transform="translate(418.5059,210.0703)"><path
             d="m 0,0 c 0,-2.313 -0.032,-4.627 0.018,-6.939 0.017,-0.795 -0.241,-0.995 -1.011,-0.998 -2.894,-0.012 -2.894,-0.04 -2.894,2.794 0,4.028 0.026,8.057 -0.021,12.084 -0.009,0.852 0.234,1.055 1.063,1.049 C 0,7.965 0,7.998 0,5.145 L 0,0 Z"
             style="fill:#ffffff;fill-opacity:1;fill-rule:evenodd;stroke:none"
             id="path5559"
             inkscape:connector-curvature="0" /></g><g
           id="g5561"
           transform="translate(373.0088,296.2949)"><path
             d="M 0,0 C 0,2.479 0.006,4.955 -0.005,7.434 -0.007,7.967 0.027,8.355 0.743,8.338 4.896,8.242 9.058,8.549 13.202,8.18 17.494,7.799 20.213,4.676 20.25,0.268 20.289,-4.297 17.501,-7.863 13.252,-8.131 9.072,-8.396 4.865,-8.227 0.67,-8.273 -0.11,-8.283 0.001,-7.783 0.001,-7.314 -0.001,-4.877 0,-2.438 0,0"
             style="fill:#38b73e;fill-opacity:1;fill-rule:evenodd;stroke:none"
             id="path5563"
             inkscape:connector-curvature="0" /></g><g
           id="g5565"
           transform="translate(373.0088,327.5967)"><path
             d="m 0,0 c 0,2.079 0.001,4.159 -0.001,6.238 0,0.447 -0.063,0.875 0.638,0.852 C 4.269,6.97 7.918,7.364 11.535,6.867 15.122,6.374 17.276,3.635 17.111,-0.027 16.927,-4.122 14.521,-6.941 10.885,-7.083 7.531,-7.214 4.17,-7.127 0.812,-7.183 0.051,-7.196 -0.016,-6.841 -0.009,-6.237 0.014,-4.159 0,-2.079 0,0"
             style="fill:#38b73e;fill-opacity:1;fill-rule:evenodd;stroke:none"
             id="path5567"
             inkscape:connector-curvature="0" /></g><g
           id="g5569"
           transform="translate(637.335,214.9531)"><path
             d="M 0,0 C 2.635,-0.004 4.547,-2.059 4.517,-4.854 4.486,-7.648 2.538,-9.695 -0.067,-9.668 -2.65,-9.641 -4.537,-7.539 -4.509,-4.723 -4.48,-1.967 -2.599,0.004 0,0"
             style="fill:#0069cc;fill-opacity:1;fill-rule:evenodd;stroke:none"
             id="path5571"
             inkscape:connector-curvature="0" /></g><g
           id="g5573"
           transform="translate(441.4287,214.6855)"><path
             d="M 0,0 C 0.28,0 0.561,0.018 0.839,-0.002 3.651,-0.203 5.256,-1.82 5.298,-4.486 5.34,-7.098 3.7,-8.85 0.958,-9.119 -1.71,-9.383 -1.71,-9.383 -1.71,-6.727 c 0,1.68 -0.016,3.36 0.003,5.04 C -1.684,0.297 -1.992,-0.01 0,0"
             style="fill:#0069cc;fill-opacity:1;fill-rule:evenodd;stroke:none"
             id="path5575"
             inkscape:connector-curvature="0" /></g><g
           id="g5577"
           transform="translate(544.2197,210.1816)"><path
             d="M 0,0 C 0,1.279 0.018,2.557 -0.009,3.836 -0.019,4.34 0.127,4.57 0.665,4.539 1.342,4.498 2.025,4.545 2.701,4.494 5.291,4.297 6.86,2.775 6.981,0.377 7.122,-2.395 5.852,-4.033 3.169,-4.545 c -2.966,-0.564 -3.17,-0.404 -3.17,2.508 0,0.678 0,1.357 0.001,2.037"
             style="fill:#0069cc;fill-opacity:1;fill-rule:evenodd;stroke:none"
             id="path5579"
             inkscape:connector-curvature="0" /></g><g
           id="g5581"
           transform="translate(355.1484,207.4258)"><path
             d="M 0,0 C 0.029,1.686 -0.271,1.439 1.738,1.436 2.369,1.436 3.014,1.361 3.627,1.215 4.294,1.059 4.734,0.619 4.785,-0.125 4.833,-0.828 4.6,-1.389 3.971,-1.727 2.813,-2.348 1.556,-2.066 0.334,-2.078 0.019,-2.08 0.002,-1.795 0.001,-1.551 -0.002,-1.111 0,-0.674 0,0"
             style="fill:#0069cc;fill-opacity:1;fill-rule:evenodd;stroke:none"
             id="path5583"
             inkscape:connector-curvature="0" /></g><g
           id="g5585"
           transform="translate(357.0986,214.959)"><path
             d="M 0,0 C 0.182,-0.023 0.664,-0.035 1.121,-0.146 1.778,-0.307 2.29,-0.658 2.318,-1.43 2.347,-2.193 2.015,-2.715 1.291,-2.992 0.364,-3.346 -0.595,-3.156 -1.54,-3.18 c -0.29,-0.006 -0.408,0.198 -0.408,0.475 0,0.357 -0.011,0.715 -0.005,1.072 C -1.919,0.174 -2.26,-0.027 0,0"
             style="fill:#0069cc;fill-opacity:1;fill-rule:evenodd;stroke:none"
             id="path5587"
             inkscape:connector-curvature="0" /></g><g
           id="g5589"
           transform="translate(577.6299,213.1621)"><path
             d="M 0,0 C -0.005,1.768 -0.005,1.764 1.769,1.76 2.33,1.758 2.885,1.74 3.421,1.543 4.126,1.283 4.538,0.834 4.551,0.037 4.563,-0.74 4.215,-1.268 3.533,-1.568 2.548,-2.004 1.494,-1.865 0.461,-1.867 0.099,-1.869 -0.005,-1.639 -0.002,-1.316 0.004,-0.879 0,-0.439 0,0"
             style="fill:#0069cc;fill-opacity:1;fill-rule:evenodd;stroke:none"
             id="path5591"
             inkscape:connector-curvature="0" /></g><g
           id="g5593"
           transform="translate(595.3799,208.4922)"><path
             d="M 0,0 C 0.613,1.656 1.201,3.244 1.906,5.148 2.597,3.262 3.172,1.686 3.788,0 L 0,0 Z"
             style="fill:#0069cc;fill-opacity:1;fill-rule:evenodd;stroke:none"
             id="path5595"
             inkscape:connector-curvature="0" /></g></g></g></g></svg>