<?xml version="1.0" encoding="UTF-8" standalone="no"?>
<!-- Created with Inkscape (http://www.inkscape.org/) -->

<svg
   xmlns:dc="http://purl.org/dc/elements/1.1/"
   xmlns:cc="http://creativecommons.org/ns#"
   xmlns:rdf="http://www.w3.org/1999/02/22-rdf-syntax-ns#"
   xmlns:svg="http://www.w3.org/2000/svg"
   xmlns="http://www.w3.org/2000/svg"
   xmlns:sodipodi="http://sodipodi.sourceforge.net/DTD/sodipodi-0.dtd"
   xmlns:inkscape="http://www.inkscape.org/namespaces/inkscape"
   id="svg6175"
   version="1.1"
   inkscape:version="0.91 r13725"
   xml:space="preserve"
   width="654.21625"
   height="567.23999"
   viewBox="0 0 654.21624 567.23999"
   sodipodi:docname="hctf new logolarge.svg"
   inkscape:export-filename="/Users/griffith/temp/hctf_360.png"
   inkscape:export-xdpi="49.52"
   inkscape:export-ydpi="49.52"><metadata
     id="metadata6181"><rdf:RDF><cc:Work
         rdf:about=""><dc:format>image/svg+xml</dc:format><dc:type
           rdf:resource="http://purl.org/dc/dcmitype/StillImage" /><dc:title></dc:title></cc:Work></rdf:RDF></metadata><defs
     id="defs6179" /><sodipodi:namedview
     pagecolor="#ffffff"
     bordercolor="#666666"
     borderopacity="1"
     objecttolerance="10"
     gridtolerance="10"
     guidetolerance="10"
     inkscape:pageopacity="0"
     inkscape:pageshadow="2"
     inkscape:window-width="1747"
     inkscape:window-height="1156"
     id="namedview6177"
     showgrid="false"
     fit-margin-top="30"
     fit-margin-left="31"
     fit-margin-right="31"
     fit-margin-bottom="30"
     inkscape:zoom="0.4652653"
     inkscape:cx="327.10626"
     inkscape:cy="283.61878"
     inkscape:window-x="0"
     inkscape:window-y="0"
     inkscape:window-maximized="0"
     inkscape:current-layer="g6183" /><g
     id="g6183"
     inkscape:groupmode="layer"
     inkscape:label="ink_ext_XXXXXX"
     transform="matrix(1.25,0,0,-1.25,31,537.24)"><g
       id="g6185"
       transform="scale(0.1,0.1)"><path
         d="m 2369.71,4056.53 c 517.11,0 940.7,-282.46 1145.06,-679.49 90.23,-175.38 146.6,-415.92 145.31,-560.36 -49.01,0 -128.54,-0.54 -242.01,-0.54 0,0 61.6,27.73 134.06,43.83 92.85,20.62 95.47,21.95 89.02,46.4 -28.4,14.2 -112.2,18.11 -235.95,-10.31 -169.71,-38.91 -245.73,-79.38 -245.73,-79.38 l -328.49,0.34 c 141.79,122.46 387.22,300.82 690.25,330.5 16.76,6.41 19.32,18.01 14.16,33.5 -28.38,10.35 -42.52,8.87 -73.5,9.06 -210.15,1.29 -495.13,-108.36 -630.54,-197.28 -104.06,-68.42 -234.83,-177.4 -240.02,-176.12 l -1486.54,-0.54 c 3.9,184.37 65.78,417.77 159.96,584.12 235.56,416.31 670.46,656.27 1104.96,656.27"
         style="fill:#00938f;fill-opacity:1;fill-rule:nonzero;stroke:none"
         id="path6187"
         inkscape:connector-curvature="0" /><path
         d="m 2369.71,4056.53 c 517.11,0 940.7,-282.46 1145.06,-679.49 90.23,-175.38 146.6,-415.92 145.31,-560.36 -49.01,0 -128.54,-0.54 -242.01,-0.54 0,0 61.6,27.73 134.06,43.83 92.85,20.62 95.47,21.95 89.02,46.4 -28.4,14.2 -112.2,18.11 -235.95,-10.31 -169.71,-38.91 -245.73,-79.38 -245.73,-79.38 l -328.49,0.34 c 141.79,122.46 387.22,300.82 690.25,330.5 16.76,6.41 19.32,18.01 14.16,33.5 -28.38,10.35 -42.52,8.87 -73.5,9.06 -210.15,1.29 -495.13,-108.36 -630.54,-197.28 -104.06,-68.42 -234.83,-177.4 -240.02,-176.12 l -1486.54,-0.54 c 3.9,184.37 65.78,417.77 159.96,584.12 235.56,416.31 670.46,656.27 1104.96,656.27 z"
         style="fill:none;stroke:#00938f;stroke-width:2.77999997;stroke-linecap:butt;stroke-linejoin:miter;stroke-miterlimit:3.86400008;stroke-dasharray:none;stroke-opacity:1"
         id="path6189"
         inkscape:connector-curvature="0" /><path
         d="m 3396.13,3153.95 c -199.86,-46.41 -325.29,-120.66 -473.18,-224.36 -125.12,-87.67 -230.84,-189.57 -373.97,-376.5 -154.7,-201.13 -246.28,-354.59 -346.87,-587.99 -60.63,-140.54 -139.24,-296.58 -130.23,-361.07 248.88,452.6 452.63,768.55 826.54,1034.14 195.64,139 435.8,228.24 622.79,246.27 11.56,1.13 -77.34,-21.9 -65.78,-21.9 -493.81,-156.01 -883.22,-661.5 -1107.6,-1285.54 29.65,-5.16 90.31,155.29 148.28,246.25 74.77,117.34 197.31,323.65 371.33,475.84 241.13,211.46 425.55,305.56 729.86,339.08 -391.99,-74.77 -644.74,-421.64 -737.55,-580.24 -65.08,-111.09 -121.23,-208.84 -163.75,-330.07 -28.38,-78.64 -78.66,-184.42 -78.66,-201.18 -7.79,-7.72 -157.48,-30.27 -257.91,-24.45 -268.2,15.43 -393.28,63.17 -540.25,128.89 0,0 130.21,303.03 238.5,475.8 220.54,348.16 400.89,590.25 740.15,826.56 72.25,50.24 323.69,199.86 598.3,220.47"
         style="fill:#3db94d;fill-opacity:1;fill-rule:nonzero;stroke:none"
         id="path6191"
         inkscape:connector-curvature="0" /><path
         d="m 3396.13,3153.95 c -199.86,-46.41 -325.29,-120.66 -473.18,-224.36 -125.12,-87.67 -230.84,-189.57 -373.97,-376.5 -154.7,-201.13 -246.28,-354.59 -346.87,-587.99 -60.63,-140.54 -139.24,-296.58 -130.23,-361.07 248.88,452.6 452.63,768.55 826.54,1034.14 195.64,139 435.8,228.24 622.79,246.27 11.56,1.13 -77.34,-21.9 -65.78,-21.9 -493.81,-156.01 -883.22,-661.5 -1107.6,-1285.54 29.65,-5.16 90.31,155.29 148.28,246.25 74.77,117.34 197.31,323.65 371.33,475.84 241.13,211.46 425.55,305.56 729.86,339.08 -391.99,-74.77 -644.74,-421.64 -737.55,-580.24 -65.08,-111.09 -121.23,-208.84 -163.75,-330.07 -28.38,-78.64 -78.66,-184.42 -78.66,-201.18 -7.79,-7.72 -157.48,-30.27 -257.91,-24.45 -268.2,15.43 -393.28,63.17 -540.25,128.89 0,0 130.21,303.03 238.5,475.8 220.54,348.16 400.89,590.25 740.15,826.56 72.25,50.24 323.69,199.86 598.3,220.47 z"
         style="fill:none;stroke:#3db94d;stroke-width:2.77999997;stroke-linecap:butt;stroke-linejoin:miter;stroke-miterlimit:3.86400008;stroke-dasharray:none;stroke-opacity:1"
         id="path6193"
         inkscape:connector-curvature="0" /><path
         d="m 3341.97,2783.91 318.52,0 0,-34.86 c -39.96,0 -290.16,1.31 -388.13,0 23.19,9.06 50.28,24.51 69.61,34.86"
         style="fill:#588ed2;fill-opacity:1;fill-rule:nonzero;stroke:none"
         id="path6195"
         inkscape:connector-curvature="0" /><path
         d="m 3341.97,2783.91 318.52,0 0,-34.86 c -39.96,0 -290.16,1.31 -388.13,0 23.19,9.06 50.28,24.51 69.61,34.86 z"
         style="fill:none;stroke:#588ed2;stroke-width:2.77999997;stroke-linecap:butt;stroke-linejoin:miter;stroke-miterlimit:3.86400008;stroke-dasharray:none;stroke-opacity:1"
         id="path6197"
         inkscape:connector-curvature="0" /><path
         d="m 2555.43,2780.02 c -18.03,-14.18 -28.38,-14.18 -41.29,-32.22 l -1410.64,0 0,32.22 1451.93,0"
         style="fill:#588ed2;fill-opacity:1;fill-rule:nonzero;stroke:none"
         id="path6199"
         inkscape:connector-curvature="0" /><path
         d="m 2555.43,2780.02 c -18.03,-14.18 -28.38,-14.18 -41.29,-32.22 l -1410.64,0 0,32.22 1451.93,0 z"
         style="fill:none;stroke:#588ed2;stroke-width:2.77999997;stroke-linecap:butt;stroke-linejoin:miter;stroke-miterlimit:3.86400008;stroke-dasharray:none;stroke-opacity:1"
         id="path6201"
         inkscape:connector-curvature="0" /><path
         d="m 2795.23,2783.91 291.43,0 c -28.34,-15.49 -51.72,-27.01 -67.17,-34.73 l -256.62,0 c 11.58,12.9 14.34,17.97 32.36,34.73"
         style="fill:#588ed2;fill-opacity:1;fill-rule:nonzero;stroke:none"
         id="path6203"
         inkscape:connector-curvature="0" /><path
         d="m 2795.23,2783.91 291.43,0 c -28.34,-15.49 -51.72,-27.01 -67.17,-34.73 l -256.62,0 c 11.58,12.9 14.34,17.97 32.36,34.73 z"
         style="fill:none;stroke:#588ed2;stroke-width:2.77999997;stroke-linecap:butt;stroke-linejoin:miter;stroke-miterlimit:3.86400008;stroke-dasharray:none;stroke-opacity:1"
         id="path6205"
         inkscape:connector-curvature="0" /><path
         d="m 2730.78,2716.86 224.4,0 c -51.57,-37.42 -96.74,-73.48 -109.63,-81.25 l -188.28,0 c 37.44,36.07 51.62,58.03 73.51,81.25"
         style="fill:#588ed2;fill-opacity:1;fill-rule:nonzero;stroke:none"
         id="path6207"
         inkscape:connector-curvature="0" /><path
         d="m 2730.78,2716.86 224.4,0 c -51.57,-37.42 -96.74,-73.48 -109.63,-81.25 l -188.28,0 c 37.44,36.07 51.62,58.03 73.51,81.25 z"
         style="fill:none;stroke:#588ed2;stroke-width:2.77999997;stroke-linecap:butt;stroke-linejoin:miter;stroke-miterlimit:3.86400008;stroke-dasharray:none;stroke-opacity:1"
         id="path6209"
         inkscape:connector-curvature="0" /><path
         d="m 3210.45,2714.28 448.75,0 -2.64,-45.15 c -131.46,0 -247.48,-32.21 -277.15,-32.21 l -284.98,0 c 23.21,15.43 94.11,61.87 116.02,77.36"
         style="fill:#588ed2;fill-opacity:1;fill-rule:nonzero;stroke:none"
         id="path6211"
         inkscape:connector-curvature="0" /><path
         d="m 3210.45,2714.28 448.75,0 -2.64,-45.15 c -131.46,0 -247.48,-32.21 -277.15,-32.21 l -284.98,0 c 23.21,15.43 94.11,61.87 116.02,77.36 z"
         style="fill:none;stroke:#588ed2;stroke-width:2.77999997;stroke-linecap:butt;stroke-linejoin:miter;stroke-miterlimit:3.86400008;stroke-dasharray:none;stroke-opacity:1"
         id="path6213"
         inkscape:connector-curvature="0" /><path
         d="m 2484.47,2718.25 c -52.89,-49.03 -78.16,-81.57 -87.2,-81.57 l -1284.26,0 c -3.91,33.52 -6.9,46.63 -6.9,80.18 l 1378.36,1.39"
         style="fill:#588ed2;fill-opacity:1;fill-rule:nonzero;stroke:none"
         id="path6215"
         inkscape:connector-curvature="0" /><path
         d="m 2484.47,2718.25 c -52.89,-49.03 -78.16,-81.57 -87.2,-81.57 l -1284.26,0 c -3.91,33.52 -6.9,46.63 -6.9,80.18 l 1378.36,1.39 z"
         style="fill:none;stroke:#588ed2;stroke-width:2.77999997;stroke-linecap:butt;stroke-linejoin:miter;stroke-miterlimit:3.86400008;stroke-dasharray:none;stroke-opacity:1"
         id="path6217"
         inkscape:connector-curvature="0" /><path
         d="m 3593.42,2604.65 60.62,6.45 c -11.62,-60.59 -32.26,-140.55 -41.29,-181.8 -157.32,0 -237.22,1.29 -391.95,0 96.64,79.96 233.34,153.44 372.62,175.35"
         style="fill:#588ed2;fill-opacity:1;fill-rule:nonzero;stroke:none"
         id="path6219"
         inkscape:connector-curvature="0" /><path
         d="m 3593.42,2604.65 60.62,6.45 c -11.62,-60.59 -32.26,-140.55 -41.29,-181.8 -157.32,0 -237.22,1.29 -391.95,0 96.64,79.96 233.34,153.44 372.62,175.35 z"
         style="fill:none;stroke:#588ed2;stroke-width:2.77999997;stroke-linecap:butt;stroke-linejoin:miter;stroke-miterlimit:3.86400008;stroke-dasharray:none;stroke-opacity:1"
         id="path6221"
         inkscape:connector-curvature="0" /><path
         d="m 2381.35,2605.92 c -54.14,-67.05 -94.14,-109.57 -144.38,-176.6 l -1081.85,0 c -19.32,63.18 -32.29,137.93 -38.73,175.33 l 1264.96,1.27"
         style="fill:#588ed2;fill-opacity:1;fill-rule:nonzero;stroke:none"
         id="path6223"
         inkscape:connector-curvature="0" /><path
         d="m 2381.35,2605.92 c -54.14,-67.05 -94.14,-109.57 -144.38,-176.6 l -1081.85,0 c -19.32,63.18 -32.29,137.93 -38.73,175.33 l 1264.96,1.27 z"
         style="fill:none;stroke:#588ed2;stroke-width:2.77999997;stroke-linecap:butt;stroke-linejoin:miter;stroke-miterlimit:3.86400008;stroke-dasharray:none;stroke-opacity:1"
         id="path6225"
         inkscape:connector-curvature="0" /><path
         d="m 2625.1,2604.65 175.33,0 c -82.54,-59.31 -125.06,-104.45 -196,-175.35 l -113.45,0 c 43.84,73.5 81.23,108.3 134.12,175.35"
         style="fill:#588ed2;fill-opacity:1;fill-rule:nonzero;stroke:none"
         id="path6227"
         inkscape:connector-curvature="0" /><path
         d="m 2625.1,2604.65 175.33,0 c -82.54,-59.31 -125.06,-104.45 -196,-175.35 l -113.45,0 c 43.84,73.5 81.23,108.3 134.12,175.35 z"
         style="fill:none;stroke:#588ed2;stroke-width:2.77999997;stroke-linecap:butt;stroke-linejoin:miter;stroke-miterlimit:3.86400008;stroke-dasharray:none;stroke-opacity:1"
         id="path6229"
         inkscape:connector-curvature="0" /><path
         d="m 3054.43,2604.65 243.68,0 c -106.96,-33.51 -241.1,-107.03 -319.77,-175.35 l -109.57,0 c 52.85,67.05 119.88,122.48 185.66,175.35"
         style="fill:#588ed2;fill-opacity:1;fill-rule:nonzero;stroke:none"
         id="path6231"
         inkscape:connector-curvature="0" /><path
         d="m 3054.43,2604.65 243.68,0 c -106.96,-33.51 -241.1,-107.03 -319.77,-175.35 l -109.57,0 c 52.85,67.05 119.88,122.48 185.66,175.35 z"
         style="fill:none;stroke:#588ed2;stroke-width:2.77999997;stroke-linecap:butt;stroke-linejoin:miter;stroke-miterlimit:3.86400008;stroke-dasharray:none;stroke-opacity:1"
         id="path6233"
         inkscape:connector-curvature="0" /><path
         d="m 2478.5,2401.43 93.14,-1 -221.21,-268.98 -36.09,0 c 36.09,86.39 143.53,242.91 164.16,269.98"
         style="fill:#588ed2;fill-opacity:1;fill-rule:nonzero;stroke:none"
         id="path6235"
         inkscape:connector-curvature="0" /><path
         d="m 2478.5,2401.43 93.14,-1 -221.21,-268.98 -36.09,0 c 36.09,86.39 143.53,242.91 164.16,269.98 z"
         style="fill:none;stroke:#588ed2;stroke-width:2.77999997;stroke-linecap:butt;stroke-linejoin:miter;stroke-miterlimit:3.86400008;stroke-dasharray:none;stroke-opacity:1"
         id="path6237"
         inkscape:connector-curvature="0" /><path
         d="m 2843.13,2403.25 116.62,0 c -59.05,-42.21 -112.5,-87.17 -137.78,-109.69 -25.35,-22.5 -87.22,-78.75 -149.08,-163.13 l -33.89,-0.54 c 67.09,108.3 129.34,193.42 204.13,273.36"
         style="fill:#588ed2;fill-opacity:1;fill-rule:nonzero;stroke:none"
         id="path6239"
         inkscape:connector-curvature="0" /><path
         d="m 2843.13,2403.25 116.62,0 c -59.05,-42.21 -112.5,-87.17 -137.78,-109.69 -25.35,-22.5 -87.22,-78.75 -149.08,-163.13 l -33.89,-0.54 c 67.09,108.3 129.34,193.42 204.13,273.36 z"
         style="fill:none;stroke:#588ed2;stroke-width:2.77999997;stroke-linecap:butt;stroke-linejoin:miter;stroke-miterlimit:3.86400008;stroke-dasharray:none;stroke-opacity:1"
         id="path6241"
         inkscape:connector-curvature="0" /><path
         d="m 3184.59,2403.79 419.26,-0.54 c -28.36,-91.55 -73.71,-189.22 -126.58,-275.63 l -532.64,-0.51 c 52.87,77.35 163.91,223.83 239.96,276.68"
         style="fill:#588ed2;fill-opacity:1;fill-rule:nonzero;stroke:none"
         id="path6243"
         inkscape:connector-curvature="0" /><path
         d="m 3184.59,2403.79 419.26,-0.54 c -28.36,-91.55 -73.71,-189.22 -126.58,-275.63 l -532.64,-0.51 c 52.87,77.35 163.91,223.83 239.96,276.68 z"
         style="fill:none;stroke:#588ed2;stroke-width:2.77999997;stroke-linecap:butt;stroke-linejoin:miter;stroke-miterlimit:3.86400008;stroke-dasharray:none;stroke-opacity:1"
         id="path6245"
         inkscape:connector-curvature="0" /><path
         d="m 1161.56,2398.33 c 40,0 1052.87,2.1 1052.87,2.1 l -179.96,-270 -755.66,0 c -42.5,59.34 -97.93,200.88 -117.25,267.9"
         style="fill:#588ed2;fill-opacity:1;fill-rule:nonzero;stroke:none"
         id="path6247"
         inkscape:connector-curvature="0" /><path
         d="m 1161.56,2398.33 c 40,0 1052.87,2.1 1052.87,2.1 l -179.96,-270 -755.66,0 c -42.5,59.34 -97.93,200.88 -117.25,267.9 z"
         style="fill:none;stroke:#588ed2;stroke-width:2.77999997;stroke-linecap:butt;stroke-linejoin:miter;stroke-miterlimit:3.86400008;stroke-dasharray:none;stroke-opacity:1"
         id="path6249"
         inkscape:connector-curvature="0" /><path
         d="m 2013.89,2096.61 c -72.23,-137.99 -103.21,-195.98 -171.53,-345.55 l -214.02,-1.29 c -6.46,-0.04 -104.45,78.61 -176.66,154.73 -52.3,55.09 -103.2,114.76 -149.57,192.11 l 711.78,0"
         style="fill:#588ed2;fill-opacity:1;fill-rule:nonzero;stroke:none"
         id="path6251"
         inkscape:connector-curvature="0" /><path
         d="m 2013.89,2096.61 c -72.23,-137.99 -103.21,-195.98 -171.53,-345.55 l -214.02,-1.29 c -6.46,-0.04 -104.45,78.61 -176.66,154.73 -52.3,55.09 -103.2,114.76 -149.57,192.11 l 711.78,0 z"
         style="fill:none;stroke:#588ed2;stroke-width:2.77999997;stroke-linecap:butt;stroke-linejoin:miter;stroke-miterlimit:3.86400008;stroke-dasharray:none;stroke-opacity:1"
         id="path6253"
         inkscape:connector-curvature="0" /><path
         d="m 2921.64,2097.92 541.56,0 c -42.56,-65.77 -91.56,-131.55 -165.09,-208.89 -52.74,-55.51 -137.97,-120.26 -161.16,-138.28 l -396.58,0 c 2.58,27.07 121.95,262.03 181.27,347.17"
         style="fill:#588ed2;fill-opacity:1;fill-rule:nonzero;stroke:none"
         id="path6255"
         inkscape:connector-curvature="0" /><path
         d="m 2921.64,2097.92 541.56,0 c -42.56,-65.77 -91.56,-131.55 -165.09,-208.89 -52.74,-55.51 -137.97,-120.26 -161.16,-138.28 l -396.58,0 c 2.58,27.07 121.95,262.03 181.27,347.17 z"
         style="fill:none;stroke:#588ed2;stroke-width:2.77999997;stroke-linecap:butt;stroke-linejoin:miter;stroke-miterlimit:3.86400008;stroke-dasharray:none;stroke-opacity:1"
         id="path6257"
         inkscape:connector-curvature="0" /><path
         d="m 2725.64,1718.81 367.47,0 c -158.58,-108.3 -349.44,-171.46 -433.23,-186.95 27.07,77.36 34.83,104.47 65.76,186.95"
         style="fill:#588ed2;fill-opacity:1;fill-rule:nonzero;stroke:none"
         id="path6259"
         inkscape:connector-curvature="0" /><path
         d="m 2725.64,1718.81 367.47,0 c -158.58,-108.3 -349.44,-171.46 -433.23,-186.95 27.07,77.36 34.83,104.47 65.76,186.95 z"
         style="fill:none;stroke:#588ed2;stroke-width:2.77999997;stroke-linecap:butt;stroke-linejoin:miter;stroke-miterlimit:3.86400008;stroke-dasharray:none;stroke-opacity:1"
         id="path6261"
         inkscape:connector-curvature="0" /><path
         d="m 1672.13,1717.52 153.51,0 c -14.21,-29.64 -16.81,-50.31 -30.99,-74.74 -56.72,25.74 -81.25,46.4 -122.52,74.74"
         style="fill:#588ed2;fill-opacity:1;fill-rule:nonzero;stroke:none"
         id="path6263"
         inkscape:connector-curvature="0" /><path
         d="m 1672.13,1717.52 153.51,0 c -14.21,-29.64 -16.81,-50.31 -30.99,-74.74 -56.72,25.74 -81.25,46.4 -122.52,74.74 z"
         style="fill:none;stroke:#588ed2;stroke-width:2.77999997;stroke-linecap:butt;stroke-linejoin:miter;stroke-miterlimit:3.86400008;stroke-dasharray:none;stroke-opacity:1"
         id="path6265"
         inkscape:connector-curvature="0" /><path
         d="m 2294.98,2097.92 c 0,0 32.23,-1.31 32.23,0 0,1.26 -118.66,-183.11 -117.33,-181.82 6.45,10.35 85.1,181.82 85.1,181.82"
         style="fill:#588ed2;fill-opacity:1;fill-rule:evenodd;stroke:none"
         id="path6267"
         inkscape:connector-curvature="0" /><path
         d="m 2294.98,2097.92 c 0,0 32.23,-1.31 32.23,0 0,1.26 -118.66,-183.11 -117.33,-181.82 6.45,10.35 85.1,181.82 85.1,181.82 z"
         style="fill:none;stroke:#588ed2;stroke-width:2.77999997;stroke-linecap:butt;stroke-linejoin:miter;stroke-miterlimit:3.86400008;stroke-dasharray:none;stroke-opacity:1"
         id="path6269"
         inkscape:connector-curvature="0" /><path
         d="m 2621.21,2097.92 c 0,0 21.9,-2.6 21.9,0 0,1.26 -125.04,-180.53 -123.79,-179.24 6.46,10.29 101.89,179.24 101.89,179.24"
         style="fill:#588ed2;fill-opacity:1;fill-rule:evenodd;stroke:none"
         id="path6271"
         inkscape:connector-curvature="0" /><path
         d="m 2621.21,2097.92 c 0,0 21.9,-2.6 21.9,0 0,1.26 -125.04,-180.53 -123.79,-179.24 6.46,10.29 101.89,179.24 101.89,179.24 z"
         style="fill:none;stroke:#588ed2;stroke-width:2.77999997;stroke-linecap:butt;stroke-linejoin:miter;stroke-miterlimit:3.86400008;stroke-dasharray:none;stroke-opacity:1"
         id="path6273"
         inkscape:connector-curvature="0" /><path
         d="m 1768.96,1080.8 c 1.2,0 2.39,0.8 2.39,2.79 l 0,8.4 c 0,60.8 0,72.01 -0.78,84.81 -0.82,13.59 -4.01,20 -17.21,22.81 -3.2,0.78 -10.02,1.19 -15.61,1.19 -4.39,0 -6.79,0.8 -6.79,3.59 0,2.8 2.79,3.62 8.4,3.62 21.6,0 46.79,-1.21 57.59,-1.21 9.61,0 34.81,1.21 50.41,1.21 5.59,0 8.4,-0.82 8.4,-3.62 0,-2.79 -2.4,-3.59 -7.21,-3.59 -3.2,0 -6.79,-0.41 -11.6,-1.19 -10.8,-2.01 -14,-8.81 -14.78,-22.81 -0.82,-12.8 -0.82,-24.01 -0.82,-84.81 l 0,-70.39 c 0,-36.799 0,-68.401 2.01,-85.6 1.19,-11.199 3.59,-19.98 15.6,-21.59 5.59,-0.82 14.4,-1.601 20.4,-1.601 4.41,0 6.38,-1.207 6.38,-3.219 0,-2.789 -3.18,-3.981 -7.99,-3.981 -25.99,0 -51.19,1.192 -62.4,1.192 -9.2,0 -34.39,-1.192 -50,-1.192 -5.58,0 -8.4,1.192 -8.4,3.981 0,2.012 1.6,3.219 6.39,3.219 6.02,0 10.82,0.781 14.41,1.601 8.01,1.61 10,10.391 11.61,22 1.99,16.789 1.99,48.391 1.99,85.19 l 0,35.2 c 0,1.6 -1.19,2.4 -2.39,2.4 l -152.81,0 c -1.19,0 -2.38,-0.39 -2.38,-2.4 l 0,-35.2 c 0,-36.799 0,-68.401 1.99,-85.6 1.19,-11.199 3.6,-19.98 15.61,-21.59 5.58,-0.82 14.39,-1.601 20.39,-1.601 4.39,0 6.4,-1.207 6.4,-3.219 0,-2.789 -3.2,-3.981 -8,-3.981 -26,0 -51.21,1.192 -62.41,1.192 -9.2,0 -34.39,-1.192 -50.39,-1.192 -5.21,0 -8,1.192 -8,3.981 0,2.012 1.6,3.219 6.4,3.219 6,0 10.8,0.781 14.4,1.601 8,1.61 10,10.391 11.6,22 2.01,16.789 2.01,48.391 2.01,85.19 l 0,70.39 c 0,60.8 0,72.01 -0.82,84.81 -0.78,13.59 -3.99,20 -17.19,22.81 -3.2,0.78 -10,1.19 -15.6,1.19 -4.4,0 -6.8,0.8 -6.8,3.59 0,2.8 2.79,3.62 8.4,3.62 21.6,0 46.79,-1.21 57.6,-1.21 9.59,0 34.8,1.21 50.41,1.21 5.58,0 8.39,-0.82 8.39,-3.62 0,-2.79 -2.4,-3.59 -7.2,-3.59 -3.21,0 -6.8,-0.41 -11.6,-1.19 -10.81,-2.01 -14.01,-8.81 -14.81,-22.81 -0.78,-12.8 -0.78,-24.01 -0.78,-84.81 l 0,-8.4 c 0,-1.99 1.19,-2.79 2.38,-2.79 l 152.81,0"
         style="fill:#231f20;fill-opacity:1;fill-rule:nonzero;stroke:none"
         id="path6275"
         inkscape:connector-curvature="0" /><path
         d="m 2030.16,1030 c 1.99,0 2.4,1.21 1.99,2.4 l -36,98.81 c -0.39,1.6 -0.8,3.59 -1.99,3.59 -1.21,0 -2.01,-1.99 -2.4,-3.59 l -36.8,-98.4 c -0.41,-1.6 0,-2.81 1.6,-2.81 l 73.6,0 z m -81.61,-20 c -1.99,0 -2.79,-0.8 -3.59,-3.2 l -21.6,-57.191 c -4,-10 -6,-19.609 -6,-24.41 0,-7.187 3.6,-12.39 16,-12.39 l 6,0 c 4.8,0 5.99,-0.821 5.99,-3.219 0,-3.18 -2.4,-3.981 -6.8,-3.981 -12.79,0 -30,1.192 -42.4,1.192 -4.39,0 -26.4,-1.192 -47.2,-1.192 -5.2,0 -7.58,0.801 -7.58,3.981 0,2.398 1.58,3.219 4.78,3.219 3.62,0 9.22,0.39 12.4,0.781 18.4,2.43 26,16.019 34.01,36.019 l 100.39,251.191 c 4.8,11.58 7.21,16 11.21,16 3.59,0 6,-3.6 10,-12.82 9.59,-21.99 73.59,-185.17 99.2,-245.968 15.19,-36.024 26.8,-41.602 35.19,-43.602 6,-1.211 12,-1.601 16.8,-1.601 3.2,0 5.22,-0.411 5.22,-3.219 0,-3.18 -3.62,-3.981 -18.42,-3.981 -14.4,0 -43.6,0 -75.61,0.801 -7.18,0.391 -11.99,0.391 -11.99,3.18 0,2.398 1.6,3.219 5.61,3.609 2.79,0.801 5.6,4.403 3.59,9.199 l -31.99,84.812 c -0.8,1.99 -1.99,2.79 -4.01,2.79 l -89.2,0"
         style="fill:#231f20;fill-opacity:1;fill-rule:nonzero;stroke:none"
         id="path6277"
         inkscape:connector-curvature="0" /><path
         d="m 2293.34,1053.2 c -8.4,6 -17.58,8.79 -33.18,9.59 -7.21,0.41 -11.21,0.41 -17.21,0.41 -1.6,0 -2.4,-0.8 -2.4,-2.79 l 0,-94.801 c 0,-26.41 1.21,-33.211 14,-38.398 10.8,-4.402 20,-4.813 29.2,-4.813 17.99,0 48.4,9.59 48.4,51.192 0,24.808 -8.4,58.4 -38.81,79.61 z m -52.79,32 c 0,-3.21 1.21,-3.99 2.79,-4.4 3.61,-0.8 9.61,-1.19 18.81,-1.19 13.2,0 22.01,1.6 28.81,7.58 10.39,8.4 16.38,22.81 16.38,42.42 0,26.8 -15.58,61.99 -50,61.99 -5.6,0 -9.18,0 -13.18,-0.8 -2.81,-0.8 -3.61,-2.4 -3.61,-6.8 l 0,-98.8 z m -47.99,6.79 c 0,60.8 0,72.01 -0.8,84.81 -0.8,13.59 -4.01,20 -17.21,22.81 -3.2,0.78 -10,1.19 -15.6,1.19 -4.4,0 -6.8,0.8 -6.8,3.59 0,2.8 2.81,3.62 8.81,3.62 21.19,0 46.38,-1.21 54.39,-1.21 19.59,0 35.2,1.21 48.81,1.21 72.38,0 85.2,-38.81 85.2,-60 0,-32.81 -18.79,-52.42 -40.81,-70 32.8,-11.21 72.8,-39.61 72.8,-86.408 0,-42.793 -33.21,-87.211 -106.8,-87.211 -4.8,0 -16.39,0.808 -28.01,1.218 -11.99,0.801 -23.98,1.192 -29.98,1.192 -4.41,0 -13.2,0 -22.81,-0.391 -9.2,0 -19.59,-0.801 -27.6,-0.801 -5.19,0 -7.99,1.192 -7.99,3.981 0,2.012 1.59,3.219 6.39,3.219 6.02,0 10.8,0.781 14.41,1.601 7.99,1.61 10,10.391 11.59,22 2.01,16.789 2.01,48.391 2.01,85.19 l 0,70.39"
         style="fill:#231f20;fill-opacity:1;fill-rule:nonzero;stroke:none"
         id="path6279"
         inkscape:connector-curvature="0" /><path
         d="m 2447.36,1091.99 c 0,60.8 0,72.01 -0.82,84.81 -0.78,13.59 -4.78,20.39 -13.59,22.4 -4.4,1.19 -9.59,1.6 -14.4,1.6 -4,0 -6.4,0.8 -6.4,4 0,2.39 3.2,3.21 9.61,3.21 15.19,0 40.39,-1.21 51.99,-1.21 10,0 33.59,1.21 48.81,1.21 5.19,0 8.4,-0.82 8.4,-3.21 0,-3.2 -2.41,-4 -6.41,-4 -4,0 -7.21,-0.41 -11.99,-1.19 -10.82,-2.01 -14.01,-8.81 -14.81,-22.81 -0.8,-12.8 -0.8,-24.01 -0.8,-84.81 l 0,-70.39 c 0,-38.791 0,-70.409 1.6,-87.6 1.2,-10.801 4.01,-17.98 16,-19.59 5.61,-0.82 14.4,-1.601 20.39,-1.601 4.42,0 6.41,-1.207 6.41,-3.219 0,-2.789 -3.21,-3.981 -7.6,-3.981 -26.41,0 -51.6,1.192 -62.4,1.192 -9.2,0 -34.4,-1.192 -50.39,-1.192 -5.22,0 -8.01,1.192 -8.01,3.981 0,2.012 1.6,3.219 6.41,3.219 5.99,0 10.8,0.781 14.39,1.601 8.01,1.61 10.41,8.399 11.6,19.981 2.01,16.8 2.01,48.418 2.01,87.209 l 0,70.39"
         style="fill:#231f20;fill-opacity:1;fill-rule:nonzero;stroke:none"
         id="path6281"
         inkscape:connector-curvature="0" /><path
         d="m 2661.35,1185.61 -59.61,-1.61 c -23.2,-0.8 -32.79,-2.79 -38.79,-11.6 -4,-5.99 -6,-10.8 -6.8,-14 -0.8,-3.2 -2.01,-4.81 -4.41,-4.81 -2.79,0 -3.6,2 -3.6,6.41 0,6.41 7.6,42.79 8.4,46 1.19,5.19 2.41,7.59 4.81,7.59 3.2,0 7.19,-4 17.19,-4.78 11.6,-1.21 26.79,-2.01 40,-2.01 l 158.39,0 c 12.82,0 21.61,1.21 27.6,2.01 6,1.19 9.2,1.99 10.8,1.99 2.81,0 3.21,-2.4 3.21,-8.4 0,-8.4 -1.22,-35.99 -1.22,-46.4 -0.39,-3.99 -1.17,-6.39 -3.59,-6.39 -3.2,0 -3.98,1.99 -4.39,7.99 l -0.41,4.39 c -0.79,10.41 -11.57,21.6 -47.17,22.4 l -50.41,1.22 0,-164.01 c 0,-36.799 0,-68.401 1.99,-85.6 1.21,-11.199 3.59,-19.98 15.61,-21.59 5.58,-0.82 14.39,-1.601 20.41,-1.601 4.39,0 6.4,-1.207 6.4,-3.219 0,-2.789 -3.24,-3.981 -7.62,-3.981 -26.4,0 -51.6,1.192 -62.81,1.192 -9.2,0 -34.39,-1.192 -50.39,-1.192 -5.19,0 -8.01,1.192 -8.01,3.981 0,2.012 1.61,3.219 6.41,3.219 6.02,0 10.78,0.781 14.41,1.601 8.01,1.61 10.39,10.391 11.59,22 2.01,16.789 2.01,48.391 2.01,85.19 l 0,164.01"
         style="fill:#231f20;fill-opacity:1;fill-rule:nonzero;stroke:none"
         id="path6283"
         inkscape:connector-curvature="0" /><path
         d="m 2945.74,1030 c 2.01,0 2.4,1.21 2.01,2.4 l -35.99,98.81 c -0.41,1.6 -0.84,3.59 -2.01,3.59 -1.21,0 -2,-1.99 -2.41,-3.59 l -36.79,-98.4 c -0.39,-1.6 0,-2.81 1.62,-2.81 l 73.57,0 z m -81.58,-20 c -2.01,0 -2.81,-0.8 -3.63,-3.2 l -21.57,-57.191 c -4.02,-10 -6.01,-19.609 -6.01,-24.41 0,-7.187 3.61,-12.39 16,-12.39 l 5.99,0 c 4.81,0 5.98,-0.821 5.98,-3.219 0,-3.18 -2.38,-3.981 -6.78,-3.981 -12.79,0 -29.98,1.192 -42.38,1.192 -4.4,0 -26.43,-1.192 -47.21,-1.192 -5.21,0 -7.6,0.801 -7.6,3.981 0,2.398 1.59,3.219 4.81,3.219 3.59,0 9.18,0.39 12.4,0.781 18.38,2.43 25.98,16.019 33.98,36.019 l 100.4,251.191 c 4.8,11.58 7.22,16 11.21,16 3.59,0 5.99,-3.6 9.98,-12.82 9.63,-21.99 73.63,-185.17 99.22,-245.968 15.17,-36.024 26.81,-41.602 35.21,-43.602 6,-1.211 11.97,-1.601 16.8,-1.601 3.18,0 5.19,-0.411 5.19,-3.219 0,-3.18 -3.59,-3.981 -18.42,-3.981 -14.37,0 -43.57,0 -75.6,0.801 -7.19,0.391 -11.99,0.391 -11.99,3.18 0,2.398 1.6,3.219 5.58,3.609 2.82,0.801 5.63,4.403 3.64,9.199 l -32.02,84.812 c -0.8,1.99 -1.97,2.79 -3.98,2.79 l -89.2,0"
         style="fill:#231f20;fill-opacity:1;fill-rule:nonzero;stroke:none"
         id="path6285"
         inkscape:connector-curvature="0" /><path
         d="m 3135.33,1185.61 -59.57,-1.61 c -23.2,-0.8 -32.81,-2.79 -38.81,-11.6 -4,-5.99 -5.99,-10.8 -6.77,-14 -0.82,-3.2 -2.02,-4.81 -4.42,-4.81 -2.81,0 -3.59,2 -3.59,6.41 0,6.41 7.58,42.79 8.4,46 1.19,5.19 2.38,7.59 4.76,7.59 3.24,0 7.23,-4 17.23,-4.78 11.6,-1.21 26.8,-2.01 40,-2.01 l 158.4,0 c 12.81,0 21.6,1.21 27.59,2.01 6,1.19 9.18,1.99 10.81,1.99 2.79,0 3.2,-2.4 3.2,-8.4 0,-8.4 -1.21,-35.99 -1.21,-46.4 -0.39,-3.99 -1.19,-6.39 -3.62,-6.39 -3.18,0 -3.98,1.99 -4.39,7.99 l -0.39,4.39 c -0.78,10.41 -11.6,21.6 -47.19,22.4 l -50.43,1.22 0,-164.01 c 0,-36.799 0,-68.401 2.01,-85.6 1.23,-11.199 3.62,-19.98 15.63,-21.59 5.57,-0.82 14.37,-1.601 20.39,-1.601 4.39,0 6.39,-1.207 6.39,-3.219 0,-2.789 -3.21,-3.981 -7.58,-3.981 -26.43,0 -51.62,1.192 -62.81,1.192 -9.22,0 -34.42,-1.192 -50.41,-1.192 -5.2,0 -7.99,1.192 -7.99,3.981 0,2.012 1.6,3.219 6.4,3.219 6.02,0 10.78,0.781 14.42,1.601 7.97,1.61 10.39,10.391 11.56,22 1.99,16.789 1.99,48.391 1.99,85.19 l 0,164.01"
         style="fill:#231f20;fill-opacity:1;fill-rule:nonzero;stroke:none"
         id="path6287"
         inkscape:connector-curvature="0" /><path
         d="M 49.5898,493.609 C 10.4102,528.012 0,572.809 0,611.602 0,638.789 8.39844,686 46.7969,721.191 c 28.8086,26.411 66.7971,42.399 126.4061,42.399 24.805,0 39.61,-1.602 58.008,-4 15.195,-1.988 27.988,-5.61 40,-6.801 4.394,-0.391 5.996,-2.398 5.996,-4.777 0,-3.211 -1.211,-8.012 -2.012,-22.012 -0.8,-13.211 -0.39,-35.199 -1.191,-43.191 -0.41,-6.008 -1.191,-9.219 -4.805,-9.219 -3.203,0 -4.004,3.211 -4.004,8.808 -0.39,12.403 -5.605,26.411 -15.605,36.801 -13.184,14 -44.395,24.801 -81.192,24.801 -34.785,0 -57.597,-8.801 -75.1949,-24.801 -29.1992,-26.801 -36.7968,-64.808 -36.7968,-103.59 0,-95.218 72.4027,-142.41 125.9957,-142.41 35.606,0 57.207,4.012 73.203,22.391 6.797,7.609 11.993,19.211 13.594,26.398 1.211,6.41 2.012,8.012 5.196,8.012 2.812,0 3.613,-2.789 3.613,-6 0,-4.801 -4.805,-39.609 -8.809,-53.199 -1.992,-6.801 -3.594,-8.813 -10.39,-11.602 C 242.793,452.789 212.402,450 186.816,450 131.992,450 85.9961,461.988 49.5898,493.609"
         style="fill:#231f20;fill-opacity:1;fill-rule:nonzero;stroke:none"
         id="path6289"
         inkscape:connector-curvature="0" /><path
         d="m 570.801,599.199 c 0,89.59 -51.602,145.192 -117.188,145.192 -46.015,0 -98.418,-25.582 -98.418,-125.192 C 355.195,536 401.191,470 478.008,470 c 27.988,0 92.793,13.59 92.793,129.199 z M 300,606.801 c 0,68.398 45.215,156.789 165.195,156.789 99.61,0 161.602,-58 161.602,-149.59 0,-91.602 -63.984,-164 -165.586,-164 C 346.406,450 300,536 300,606.801"
         style="fill:#231f20;fill-opacity:1;fill-rule:nonzero;stroke:none"
         id="path6291"
         inkscape:connector-curvature="0" /><path
         d="m 712.793,510 c 0.801,-31.211 5.996,-41.602 14.004,-44.391 6.797,-2.41 14.394,-2.8 20.801,-2.8 4.394,0 6.797,-0.821 6.797,-3.219 0,-3.18 -3.594,-3.981 -9.2,-3.981 -25.996,0 -42.011,1.192 -49.59,1.192 -3.613,0 -22.402,-1.192 -43.203,-1.192 -5.214,0 -8.808,0.391 -8.808,3.981 0,2.398 2.402,3.219 6.386,3.219 5.215,0 12.422,0.39 18.008,1.992 10.41,3.211 12.012,14.808 12.403,49.609 l 3.613,236.781 c 0,8.008 1.191,13.61 5.195,13.61 4.395,0 7.989,-5.211 14.805,-12.403 4.785,-5.207 65.586,-70.41 123.984,-128.398 27.207,-27.199 81.211,-84.801 88.008,-91.191 l 1.992,0 -4.004,179.57 c -0.39,24.422 -4.004,32.012 -13.593,36.019 -5.996,2.403 -15.606,2.403 -21.192,2.403 -4.804,0 -6.406,1.187 -6.406,3.59 0,3.211 4.395,3.621 10.391,3.621 20.82,0 40.019,-1.211 48.418,-1.211 4.394,0 19.589,1.211 39.199,1.211 5.195,0 9.199,-0.41 9.199,-3.621 0,-2.403 -2.402,-3.59 -7.207,-3.59 -4.004,0 -7.207,0 -11.992,-1.192 -11.211,-3.199 -14.414,-11.597 -14.805,-34 l -4.414,-252.41 c 0,-8.808 -1.582,-12.398 -5.195,-12.398 -4.395,0 -9.199,4.398 -13.594,8.789 -25.215,24 -76.406,76.41 -118.008,117.621 -43.594,43.18 -87.988,93.18 -95.195,100.777 l -1.211,0 L 712.793,510"
         style="fill:#231f20;fill-opacity:1;fill-rule:nonzero;stroke:none"
         id="path6293"
         inkscape:connector-curvature="0" /><path
         d="m 1027.21,460.41 c -6.41,2.789 -7.62,4.789 -7.62,13.59 0,22 1.6,46 2.01,52.41 0.39,5.988 1.6,10.391 4.79,10.391 3.61,0 4,-3.602 4,-6.801 0,-5.199 1.6,-13.59 3.61,-20.41 8.79,-29.59 32.39,-40.391 57.19,-40.391 36.02,0 53.6,24.41 53.6,45.602 0,19.59 -6,37.988 -39.2,63.988 l -18.38,14.41 c -44.03,34.403 -59.22,62.41 -59.22,94.813 0,43.976 36.81,75.578 92.42,75.578 25.98,0 42.79,-4 53.18,-6.789 3.6,-0.801 5.61,-2 5.61,-4.813 0,-5.187 -1.6,-16.789 -1.6,-48.008 0,-8.781 -1.21,-11.992 -4.4,-11.992 -2.81,0 -4,2.403 -4,7.211 0,3.59 -2.01,16 -10.41,26.41 -6,7.59 -17.6,19.59 -43.59,19.59 -29.59,0 -47.6,-17.211 -47.6,-41.219 0,-18.371 9.2,-32.378 42.4,-57.57 l 11.19,-8.398 C 1169.59,601.602 1186.8,574 1186.8,536 c 0,-23.211 -8.81,-50.801 -37.6,-69.59 -20,-12.82 -42.4,-16.41 -63.59,-16.41 -23.21,0 -41.22,2.789 -58.4,10.41"
         style="fill:#231f20;fill-opacity:1;fill-rule:nonzero;stroke:none"
         id="path6295"
         inkscape:connector-curvature="0" /><path
         d="m 1261.99,641.988 c 0,60.801 0,72.012 -0.8,84.813 -0.8,13.59 -4,20 -17.21,22.808 -3.2,0.782 -10,1.192 -15.6,1.192 -4.4,0 -6.8,0.801 -6.8,3.59 0,2.8 2.81,3.621 8.81,3.621 10.8,0 22.4,-0.41 32.4,-0.41 10.39,-0.411 19.59,-0.801 25.2,-0.801 12.79,0 92.4,0 100,0.39 7.6,0.821 14,1.618 17.21,2.399 1.99,0.41 4.39,1.601 6.38,1.601 2.01,0 2.4,-1.601 2.4,-3.589 0,-2.801 -1.99,-7.602 -3.2,-26 -0.39,-4 -1.19,-21.602 -1.99,-26.403 -0.41,-2 -1.21,-4.398 -4,-4.398 -2.8,0 -3.6,1.988 -3.6,5.609 0,2.789 -0.41,9.59 -2.4,14.391 -2.79,7.187 -6.82,12.008 -26.8,14.398 -6.79,0.801 -48.81,1.602 -56.79,1.602 -2.02,0 -2.8,-1.192 -2.8,-3.992 l 0,-101.207 c 0,-2.813 0.39,-4.391 2.8,-4.391 8.78,0 54.78,0 64,0.801 9.59,0.777 15.59,1.988 19.2,5.988 2.79,3.191 4.39,5.199 6.39,5.199 1.6,0 2.79,-0.801 2.79,-3.199 0,-2.41 -1.6,-8.789 -3.19,-29.199 -0.41,-8.012 -1.6,-23.992 -1.6,-26.801 0,-3.199 0,-7.602 -3.61,-7.602 -2.79,0 -3.59,1.602 -3.59,3.602 -0.41,4 -0.41,9.199 -1.61,14.391 -2.01,8.007 -7.59,14 -22.4,15.609 -7.6,0.801 -47.19,1.211 -56.79,1.211 -2,0 -2.39,-1.602 -2.39,-4.012 l 0,-31.597 c 0,-13.59 -0.41,-50.391 0,-62.012 0.78,-27.602 7.19,-33.59 47.99,-33.59 10.41,0 27.21,0 37.6,4.801 10.39,4.808 15.19,13.199 17.99,29.609 0.8,4.391 1.6,6 4.41,6 3.2,0 3.2,-3.211 3.2,-7.211 0,-9.199 -3.2,-36.39 -5.21,-44.398 -2.79,-10.41 -6.39,-10.41 -21.58,-10.41 -30.02,0 -52.01,0.808 -69.2,1.218 -17.21,0.801 -29.61,1.192 -41.6,1.192 -4.42,0 -13.21,0 -22.82,-0.391 -9.18,0 -19.59,-0.801 -27.59,-0.801 -5.2,0 -7.99,1.192 -7.99,3.981 0,2.012 1.6,3.219 6.38,3.219 6.02,0 10.81,0.781 14.42,1.601 7.99,1.61 9.98,10.391 11.58,22 2.01,16.789 2.01,48.391 2.01,85.192 l 0,70.386"
         style="fill:#231f20;fill-opacity:1;fill-rule:nonzero;stroke:none"
         id="path6297"
         inkscape:connector-curvature="0" /><path
         d="m 1704.96,718.809 c -9.2,21.992 -16,26.39 -30.39,30.39 -6.02,1.602 -12.4,1.602 -15.61,1.602 -3.59,0 -4.8,1.187 -4.8,3.59 0,3.211 4.39,3.621 10.41,3.621 21.19,0 43.98,-1.211 57.99,-1.211 10,0 29.2,1.211 49.2,1.211 4.8,0 9.2,-0.821 9.2,-3.621 0,-2.789 -2.41,-3.59 -6,-3.59 -6.41,0 -12.4,-0.41 -15.6,-2.789 -2.8,-2.012 -3.99,-4.813 -3.99,-8.403 0,-5.218 3.59,-16.41 9.2,-30.8 l 68.79,-181.598 1.6,0 c 17.21,44 69.2,172.789 78.81,199.18 1.99,5.211 3.59,11.211 3.59,14.82 0,3.18 -1.6,6.391 -5.19,7.578 -4.81,1.602 -10.82,2.012 -16.02,2.012 -3.59,0 -6.79,0.39 -6.79,3.179 0,3.211 3.59,4.032 11.21,4.032 20,0 36.79,-1.211 41.99,-1.211 6.8,0 25.58,1.211 37.6,1.211 5.19,0 8.39,-0.821 8.39,-3.621 0,-2.789 -2.4,-3.59 -6.4,-3.59 -3.99,0 -12.4,0 -19.59,-4.801 -5.2,-3.602 -11.21,-10.391 -22.01,-36 -15.59,-37.602 -26.39,-59.199 -47.99,-108.398 -25.61,-58.403 -44.4,-101.993 -53.2,-121.993 -10.4,-23.199 -12.8,-29.609 -18.4,-29.609 -5.2,0 -7.6,5.609 -15.2,24.41 l -100.8,244.399"
         style="fill:#231f20;fill-opacity:1;fill-rule:nonzero;stroke:none"
         id="path6299"
         inkscape:connector-curvature="0" /><path
         d="m 2086.95,580 c 2.01,0 2.41,1.211 2.01,2.398 l -36.01,98.813 c -0.39,1.598 -0.8,3.59 -1.99,3.59 -1.19,0 -2.01,-1.992 -2.41,-3.59 l -36.79,-98.402 c -0.41,-1.598 0,-2.809 1.6,-2.809 l 73.59,0 z m -81.58,-20 c -2.01,0 -2.81,-0.801 -3.61,-3.199 l -21.6,-57.192 c -4.01,-10 -6,-19.609 -6,-24.41 0,-7.187 3.59,-12.39 16,-12.39 l 5.99,0 c 4.81,0 6,-0.821 6,-3.219 0,-3.18 -2.38,-3.981 -6.8,-3.981 -12.79,0 -30,1.192 -42.4,1.192 -4.4,0 -26.41,-1.192 -47.19,-1.192 -5.21,0 -7.6,0.801 -7.6,3.981 0,2.398 1.61,3.219 4.79,3.219 3.61,0 9.22,0.39 12.4,0.781 18.4,2.43 26.02,16.019 34.01,36.019 l 100.41,251.192 c 4.78,11.578 7.18,16 11.19,16 3.59,0 5.99,-3.602 10,-12.821 9.61,-21.992 73.59,-185.171 99.2,-245.968 15.19,-36.024 26.79,-41.602 35.19,-43.602 6,-1.211 11.99,-1.601 16.82,-1.601 3.18,0 5.19,-0.411 5.19,-3.219 0,-3.18 -3.61,-3.981 -18.41,-3.981 -14.4,0 -43.6,0 -75.59,0.801 -7.21,0.391 -12.01,0.391 -12.01,3.18 0,2.398 1.6,3.219 5.6,3.609 2.8,0.801 5.61,4.403 3.62,9.199 l -32.02,84.813 c -0.8,1.988 -1.99,2.789 -4,2.789 l -89.18,0"
         style="fill:#231f20;fill-opacity:1;fill-rule:nonzero;stroke:none"
         id="path6301"
         inkscape:connector-curvature="0" /><path
         d="M 2276.56,735.609 2216.97,734 c -23.2,-0.801 -32.81,-2.789 -38.81,-11.602 -4,-5.988 -5.99,-10.796 -6.79,-14 -0.8,-3.199 -2.01,-4.808 -4.4,-4.808 -2.81,0 -3.59,2 -3.59,6.41 0,6.41 7.58,42.789 8.4,46 1.19,5.191 2.38,7.59 4.78,7.59 3.21,0 7.21,-4 17.21,-4.781 11.6,-1.207 26.8,-2.008 40,-2.008 l 158.4,0 c 12.79,0 21.6,1.211 27.6,2.008 5.99,1.191 9.19,1.992 10.8,1.992 2.79,0 3.2,-2.403 3.2,-8.403 0,-8.398 -1.21,-35.988 -1.21,-46.398 -0.39,-3.988 -1.19,-6.391 -3.6,-6.391 -3.2,0 -4,1.993 -4.39,7.993 l -0.41,4.386 c -0.8,10.41 -11.6,21.602 -47.19,22.403 l -50.41,1.218 0,-164.007 c 0,-36.801 0,-68.403 2.01,-85.602 1.2,-11.199 3.6,-19.98 15.59,-21.59 5.61,-0.82 14.39,-1.601 20.41,-1.601 4.39,0 6.39,-1.207 6.39,-3.219 0,-2.789 -3.21,-3.981 -7.58,-3.981 -26.41,0 -51.6,1.192 -62.81,1.192 -9.2,0 -34.4,-1.192 -50.41,-1.192 -5.2,0 -7.99,1.192 -7.99,3.981 0,2.012 1.6,3.219 6.38,3.219 6.02,0 10.81,0.781 14.42,1.601 7.99,1.61 10.39,10.391 11.6,22 1.99,16.789 1.99,48.391 1.99,85.192 l 0,164.007"
         style="fill:#231f20;fill-opacity:1;fill-rule:nonzero;stroke:none"
         id="path6303"
         inkscape:connector-curvature="0" /><path
         d="m 2487.36,641.988 c 0,60.801 0,72.012 -0.82,84.813 -0.78,13.59 -4.78,20.39 -13.59,22.398 -4.4,1.192 -9.59,1.602 -14.4,1.602 -4,0 -6.4,0.801 -6.4,4 0,2.39 3.2,3.211 9.61,3.211 15.19,0 40.39,-1.211 52.01,-1.211 9.98,0 33.59,1.211 48.79,1.211 5.19,0 8.4,-0.821 8.4,-3.211 0,-3.199 -2.41,-4 -6.41,-4 -4,0 -7.21,-0.41 -11.99,-1.192 -10.8,-2.007 -14.01,-8.808 -14.81,-22.808 -0.8,-12.801 -0.8,-24.012 -0.8,-84.813 l 0,-70.386 c 0,-38.793 0,-70.411 1.6,-87.602 1.2,-10.801 4.01,-17.98 16,-19.59 5.61,-0.82 14.4,-1.601 20.41,-1.601 4.4,0 6.39,-1.207 6.39,-3.219 0,-2.789 -3.21,-3.981 -7.6,-3.981 -26.39,0 -51.58,1.192 -62.4,1.192 -9.2,0 -34.4,-1.192 -50.39,-1.192 -5.2,0 -8.01,1.192 -8.01,3.981 0,2.012 1.6,3.219 6.41,3.219 5.99,0 10.8,0.781 14.39,1.601 8.01,1.61 10.41,8.399 11.6,19.981 2.01,16.8 2.01,48.418 2.01,87.211 l 0,70.386"
         style="fill:#231f20;fill-opacity:1;fill-rule:nonzero;stroke:none"
         id="path6305"
         inkscape:connector-curvature="0" /><path
         d="m 2871.35,599.199 c 0,89.59 -51.58,145.192 -117.21,145.192 -46,0 -98.38,-25.582 -98.38,-125.192 C 2655.76,536 2701.74,470 2778.55,470 c 28.01,0 92.8,13.59 92.8,129.199 z m -270.8,7.602 c 0,68.398 45.19,156.789 165.21,156.789 99.59,0 161.56,-58 161.56,-149.59 0,-91.602 -63.98,-164 -165.56,-164 -114.79,0 -161.21,86 -161.21,156.801"
         style="fill:#231f20;fill-opacity:1;fill-rule:nonzero;stroke:none"
         id="path6307"
         inkscape:connector-curvature="0" /><path
         d="m 3013.38,510 c 0.78,-31.211 5.98,-41.602 13.98,-44.391 6.8,-2.41 14.38,-2.8 20.8,-2.8 4.4,0 6.82,-0.821 6.82,-3.219 0,-3.18 -3.63,-3.981 -9.24,-3.981 -25.97,0 -41.99,1.192 -49.59,1.192 -3.59,0 -22.38,-1.192 -43.18,-1.192 -5.22,0 -8.81,0.391 -8.81,3.981 0,2.398 2.42,3.219 6.39,3.219 5.21,0 12.4,0.39 17.99,1.992 10.41,3.211 12.03,14.808 12.42,49.609 l 3.59,236.781 c 0,8.008 1.21,13.61 5.22,13.61 4.39,0 7.98,-5.211 14.78,-12.403 4.81,-5.207 65.61,-70.41 124,-128.398 27.21,-27.199 81.2,-84.801 87.99,-91.191 l 2,0 -3.99,179.57 c -0.39,24.422 -4.02,32.012 -13.59,36.019 -6,2.403 -15.63,2.403 -21.21,2.403 -4.81,0 -6.39,1.187 -6.39,3.59 0,3.211 4.39,3.621 10.39,3.621 20.8,0 40.02,-1.211 48.42,-1.211 4.39,0 19.57,1.211 39.18,1.211 5.19,0 9.22,-0.41 9.22,-3.621 0,-2.403 -2.41,-3.59 -7.21,-3.59 -4,0 -7.21,0 -11.99,-1.192 -11.23,-3.199 -14.4,-11.597 -14.83,-34 l -4.39,-252.41 c 0,-8.808 -1.58,-12.398 -5.2,-12.398 -4.39,0 -9.2,4.398 -13.59,8.789 -25.22,24 -76.39,76.41 -117.99,117.621 -43.61,43.18 -88.01,93.18 -95.23,100.777 l -1.19,0 4.43,-167.988"
         style="fill:#231f20;fill-opacity:1;fill-rule:nonzero;stroke:none"
         id="path6309"
         inkscape:connector-curvature="0" /><path
         d="M 3502.95,735.609 3443.34,734 c -23.18,-0.801 -32.81,-2.789 -38.81,-11.602 -4,-5.988 -5.98,-10.796 -6.78,-14 -0.78,-3.199 -2.01,-4.808 -4.41,-4.808 -2.79,0 -3.59,2 -3.59,6.41 0,6.41 7.61,42.789 8.39,46 1.22,5.191 2.39,7.59 4.81,7.59 3.2,0 7.19,-4 17.21,-4.781 11.58,-1.207 26.77,-2.008 39.98,-2.008 l 158.4,0 c 12.81,0 21.6,1.211 27.59,2.008 6,1.191 9.2,1.992 10.8,1.992 2.82,0 3.21,-2.403 3.21,-8.403 0,-8.398 -1.21,-35.988 -1.21,-46.398 -0.39,-3.988 -1.18,-6.391 -3.6,-6.391 -3.2,0 -3.98,1.993 -4.39,7.993 l -0.41,4.386 c -0.78,10.41 -11.57,21.602 -47.17,22.403 l -50.41,1.218 0,-164.007 c 0,-36.801 0,-68.403 1.99,-85.602 1.21,-11.199 3.6,-19.98 15.61,-21.59 5.58,-0.82 14.39,-1.601 20.41,-1.601 4.39,0 6.4,-1.207 6.4,-3.219 0,-2.789 -3.24,-3.981 -7.61,-3.981 -26.41,0 -51.61,1.192 -62.82,1.192 -9.2,0 -34.39,-1.192 -50.39,-1.192 -5.21,0 -8,1.192 -8,3.981 0,2.012 1.62,3.219 6.4,3.219 6.02,0 10.78,0.781 14.42,1.601 8,1.61 10.39,10.391 11.58,22 2.01,16.789 2.01,48.391 2.01,85.192 l 0,164.007"
         style="fill:#231f20;fill-opacity:1;fill-rule:nonzero;stroke:none"
         id="path6311"
         inkscape:connector-curvature="0" /><path
         d="m 3760.92,610.41 c 0,-4.41 0.84,-6.019 3.63,-7.211 8.4,-2.789 20.39,-4 30.41,-4 15.96,0 21.19,1.602 28.38,6.801 11.99,8.801 23.59,27.199 23.59,60 0,56.789 -37.59,73.199 -61.21,73.199 -9.98,0 -17.18,-0.41 -21.17,-1.597 -2.79,-0.801 -3.63,-2.403 -3.63,-5.614 l 0,-121.578 z m 38.03,-30.41 -34.79,0.801 c 0,0 -3.24,-0.801 -3.24,-3.199 l 0,-5.614 c 0,-37.187 0,-68.789 2.01,-85.578 1.23,-11.609 3.61,-20.39 15.62,-22 6,-0.82 14.79,-1.601 19.59,-1.601 3.21,0 4.81,-1.207 4.81,-3.219 0,-2.789 -2.81,-3.981 -7.99,-3.981 -23.22,0 -52.83,1.192 -58.81,1.192 -7.6,0 -32.79,-1.192 -48.81,-1.192 -5.19,0 -8,1.192 -8,3.981 0,2.012 1.62,3.219 6.38,3.219 6.02,0 10.82,0.781 14.42,1.601 8,1.61 10,10.391 11.62,22 2.01,16.789 2.01,48.391 2.01,85.192 l 0,70.386 c 0,60.801 0,72.012 -0.84,84.813 -0.78,13.59 -3.98,20 -17.19,22.808 -3.2,0.782 -10.02,1.192 -15.6,1.192 -4.4,0 -6.8,0.801 -6.8,3.59 0,2.8 2.81,3.621 8.81,3.621 21.21,0 46.4,-1.211 54.8,-1.211 13.6,0 44.01,1.211 56.39,1.211 25.2,0 52.01,-2.422 73.59,-17.211 11.21,-7.602 27.19,-28.012 27.19,-54.801 0,-29.59 -12.38,-56.801 -52.77,-89.59 l -6.84,-5.941 L 3798.95,580"
         style="fill:#231f20;fill-opacity:1;fill-rule:nonzero;stroke:none"
         id="path6313"
         inkscape:connector-curvature="0" /><path
         d="m 3976.54,641.988 c 0,60.801 0,72.012 -0.82,84.813 -0.78,13.59 -3.98,20 -17.18,22.808 -3.21,0.782 -10,1.192 -15.61,1.192 -4.39,0 -6.82,0.801 -6.82,3.59 0,2.8 2.85,3.621 8.83,3.621 21.21,0 46.41,-1.211 58.4,-1.211 9.59,0 34.79,1.211 49.18,1.211 6.02,0 8.83,-0.821 8.83,-3.621 0,-2.789 -2.42,-3.59 -6.43,-3.59 -4.39,0 -6.78,-0.41 -11.58,-1.192 -10.8,-2.007 -14,-8.808 -14.79,-22.808 -0.84,-12.801 -0.84,-24.012 -0.84,-84.813 l 0,-55.988 c 0,-57.988 11.65,-82.41 31.22,-98.398 18,-14.793 36.42,-16.391 50,-16.391 17.61,0 39.21,5.59 55.23,21.578 21.95,22.012 23.18,58.012 23.18,99.199 l 0,50 c 0,60.801 0,72.012 -0.8,84.813 -0.82,13.59 -4,20 -17.22,22.808 -3.17,0.782 -9.98,1.192 -14.4,1.192 -4.39,0 -6.78,0.801 -6.78,3.59 0,2.8 2.8,3.621 8.4,3.621 20.39,0 45.59,-1.211 45.98,-1.211 4.82,0 30.02,1.211 45.62,1.211 5.61,0 8.4,-0.821 8.4,-3.621 0,-2.789 -2.4,-3.59 -7.2,-3.59 -4.4,0 -6.82,-0.41 -11.61,-1.192 -10.8,-2.007 -14,-8.808 -14.78,-22.808 -0.82,-12.801 -0.82,-24.012 -0.82,-84.813 l 0,-42.789 c 0,-44.398 -4.4,-91.578 -38.01,-120.41 C 4155.76,454.391 4126.93,450 4100.94,450 c -21.21,0 -59.59,1.191 -88.79,27.602 -20.41,18.398 -35.61,48.007 -35.61,105.988 l 0,58.398"
         style="fill:#231f20;fill-opacity:1;fill-rule:nonzero;stroke:none"
         id="path6315"
         inkscape:connector-curvature="0" /><path
         d="m 4292.54,460.41 c -6.43,2.789 -7.6,4.789 -7.6,13.59 0,22 1.6,46 2.01,52.41 0.39,5.988 1.59,10.391 4.79,10.391 3.61,0 4,-3.602 4,-6.801 0,-5.199 1.62,-13.59 3.62,-20.41 8.78,-29.59 32.38,-40.391 57.18,-40.391 36,0 53.6,24.41 53.6,45.602 0,19.59 -6,37.988 -39.2,63.988 l -18.42,14.41 c -43.98,34.403 -59.18,62.41 -59.18,94.813 0,43.976 36.8,75.578 92.38,75.578 26.02,0 42.83,-4 53.24,-6.789 3.58,-0.801 5.55,-2 5.55,-4.813 0,-5.187 -1.58,-16.789 -1.58,-48.008 0,-8.781 -1.19,-11.992 -4.39,-11.992 -2.82,0 -4.01,2.403 -4.01,7.211 0,3.59 -1.99,16 -10.39,26.41 -6,7.59 -17.6,19.59 -43.57,19.59 -29.63,0 -47.62,-17.211 -47.62,-41.219 0,-18.371 9.18,-32.378 42.38,-57.57 l 11.21,-8.398 c 48.4,-36.41 65.59,-64.012 65.59,-102.012 0,-23.211 -8.79,-50.801 -37.58,-69.59 -20.04,-12.82 -42.42,-16.41 -63.61,-16.41 -23.23,0 -41.19,2.789 -58.4,10.41"
         style="fill:#231f20;fill-opacity:1;fill-rule:nonzero;stroke:none"
         id="path6317"
         inkscape:connector-curvature="0" /><path
         d="M 4580.53,735.609 4520.94,734 c -23.19,-0.801 -32.81,-2.789 -38.81,-11.602 -4.02,-5.988 -6,-10.796 -6.8,-14 -0.78,-3.199 -1.99,-4.808 -4.39,-4.808 -2.81,0 -3.62,2 -3.62,6.41 0,6.41 7.62,42.789 8.4,46 1.21,5.191 2.39,7.59 4.81,7.59 3.2,0 7.2,-4 17.22,-4.781 11.57,-1.207 26.78,-2.008 39.98,-2.008 l 158.4,0 c 12.8,0 21.58,1.211 27.6,2.008 6,1.191 9.2,1.992 10.78,1.992 2.83,0 3.22,-2.403 3.22,-8.403 0,-8.398 -1.23,-35.988 -1.23,-46.398 -0.39,-3.988 -1.17,-6.391 -3.57,-6.391 -3.2,0 -3.98,1.993 -4.39,7.993 l -0.43,4.386 c -0.79,10.41 -11.57,21.602 -47.15,22.403 l -50.43,1.218 0,-164.007 c 0,-36.801 0,-68.403 2.01,-85.602 1.19,-11.199 3.57,-19.98 15.6,-21.59 5.59,-0.82 14.4,-1.601 20.4,-1.601 4.41,0 6.4,-1.207 6.4,-3.219 0,-2.789 -3.22,-3.981 -7.62,-3.981 -26.38,0 -51.58,1.192 -62.79,1.192 -9.2,0 -34.39,-1.192 -50.39,-1.192 -5.21,0 -8.01,1.192 -8.01,3.981 0,2.012 1.62,3.219 6.39,3.219 6.02,0 10.8,0.781 14.41,1.601 8.01,1.61 10.39,10.391 11.61,22 1.99,16.789 1.99,48.391 1.99,85.192 l 0,164.007"
         style="fill:#231f20;fill-opacity:1;fill-rule:nonzero;stroke:none"
         id="path6319"
         inkscape:connector-curvature="0" /><path
         d="m 1018.38,121.602 c 0,-38.4028 0,-68.4028 1.99,-85.1918 1.21,-11.6094 3.59,-20.3907 15.59,-22 5.6,-0.8204 14.41,-1.6016 20.02,-1.6016 5.19,0 6.79,-1.207 6.79,-3.21876 0,-2.78906 -2.81,-3.98046 -8.81,-3.98046 -25.19,0 -50.39,1.1914 -60.796,1.1914 -10.391,0 -35.586,-1.1914 -50.801,-1.1914 -5.586,0 -8.398,0.80078 -8.398,3.98046 0,2.01176 1.601,3.21876 5.996,3.21876 6.016,0 10.801,0.7812 14.414,1.6016 7.988,1.6093 10,10.3906 11.602,22 1.992,16.789 1.992,46.789 1.992,85.1918 l 0,70.386 c 0,60.801 0,72.012 -0.801,84.813 -0.801,13.59 -3.984,20 -17.207,22.808 -3.184,0.782 -10,1.192 -15.606,1.192 -3.984,0 -6.796,0.801 -6.796,3.179 0,3.211 3.203,4.032 9.218,4.032 10.391,0 21.993,-0.41 32.383,-0.41 10.41,-0.411 19.61,-0.801 25.215,-0.801 15.195,0 96.385,0 105.585,0.39 7.62,0.411 12.4,0.411 16.41,1.618 2.4,0.781 4.39,2.382 6.4,2.382 1.61,0 2.8,-1.601 2.8,-3.589 0,-2.801 -2.02,-7.602 -3.21,-17.993 -0.39,-4 -1.19,-27.621 -1.99,-32.398 -0.39,-3.231 -1.21,-5.609 -4,-5.609 -2.8,0 -3.6,1.988 -4.01,6.41 0,3.179 0,9.59 -2.4,15.187 -2.79,5.59 -11.19,11.59 -26.39,12 l -61.6,1.211 c -2.4,0 -3.59,-1.211 -3.59,-5.609 l 0,-100 c 0,-2.403 0.39,-3.59 2.79,-3.59 l 51.19,0.391 c 6.8,0 12.41,0 18.01,0.41 7.6,0.386 13.2,1.988 17.21,7.187 1.99,2.403 2.79,4 5.19,4 1.61,0 2.39,-1.187 2.39,-3.59 0,-2.41 -1.98,-12.41 -3.19,-24.808 -0.8,-8.012 -1.6,-26.41 -1.6,-29.199 0,-3.59 0,-7.602 -4,-7.602 -2.41,0 -3.21,2.801 -3.21,5.609 0,2.789 -0.8,7.582 -2.4,12.379 -1.99,5.614 -8.01,12.813 -20.39,14.422 -10,1.192 -52.4,1.192 -59.2,1.192 -2.01,0 -2.79,-0.801 -2.79,-3.622 l 0,-32.378"
         style="fill:#231f20;fill-opacity:1;fill-rule:nonzero;stroke:none"
         id="path6321"
         inkscape:connector-curvature="0" /><path
         d="m 1423.96,149.199 c 0,89.59 -51.6,145.192 -117.2,145.192 -46,0 -98.4,-25.582 -98.4,-125.192 C 1208.36,86 1254.36,20 1331.17,20 c 27.99,0 92.79,13.5898 92.79,129.199 z m -270.8,7.602 c 0,68.398 45.2,156.789 165.2,156.789 99.59,0 161.6,-58 161.6,-149.59 0,-91.6016 -64,-164 -165.58,-164 -114.81,0 -161.22,86 -161.22,156.801"
         style="fill:#231f20;fill-opacity:1;fill-rule:nonzero;stroke:none"
         id="path6323"
         inkscape:connector-curvature="0" /><path
         d="m 1530.37,191.988 c 0,60.801 0,72.012 -0.82,84.813 -0.78,13.59 -3.98,20 -17.19,22.808 -3.2,0.782 -10,1.192 -15.6,1.192 -4.4,0 -6.8,0.801 -6.8,3.59 0,2.8 2.79,3.621 8.79,3.621 21.21,0 46.41,-1.211 58.4,-1.211 9.61,0 34.8,1.211 49.22,1.211 5.99,0 8.79,-0.821 8.79,-3.621 0,-2.789 -2.41,-3.59 -6.41,-3.59 -4.39,0 -6.8,-0.41 -11.58,-1.192 -10.82,-2.007 -14.01,-8.808 -14.81,-22.808 -0.8,-12.801 -0.8,-24.012 -0.8,-84.813 l 0,-55.988 c 0,-57.9883 11.58,-82.4102 31.19,-98.3984 18.01,-14.793 36.41,-16.3907 50,-16.3907 17.62,0 39.2,5.5899 55.2,21.5782 22.01,22.0117 23.2,58.0119 23.2,99.1989 l 0,50 c 0,60.801 0,72.012 -0.8,84.813 -0.8,13.59 -4,20 -17.19,22.808 -3.2,0.782 -10,1.192 -14.41,1.192 -4.39,0 -6.8,0.801 -6.8,3.59 0,2.8 2.82,3.621 8.4,3.621 20.41,0 45.61,-1.211 46.02,-1.211 4.78,0 29.98,1.211 45.58,1.211 5.61,0 8.4,-0.821 8.4,-3.621 0,-2.789 -2.38,-3.59 -7.21,-3.59 -4.39,0 -6.79,-0.41 -11.58,-1.192 -10.8,-2.007 -14,-8.808 -14.8,-22.808 -0.8,-12.801 -0.8,-24.012 -0.8,-84.813 l 0,-42.789 c 0,-44.398 -4.4,-91.5779 -38.01,-120.4099 C 1709.55,4.39063 1680.76,0 1654.77,0 1633.55,0 1595.16,1.19141 1565.96,27.6016 1545.57,46 1530.37,75.6094 1530.37,133.59 l 0,58.398"
         style="fill:#231f20;fill-opacity:1;fill-rule:nonzero;stroke:none"
         id="path6325"
         inkscape:connector-curvature="0" /><path
         d="m 1890.76,60 c 0.8,-31.2109 6,-41.6016 14.01,-44.3906 6.79,-2.4102 14.39,-2.8008 20.8,-2.8008 4.39,0 6.79,-0.8203 6.79,-3.21876 0,-3.17968 -3.59,-3.98046 -9.2,-3.98046 -25.99,0 -42.01,1.1914 -49.61,1.1914 -3.59,0 -22.4,-1.1914 -43.18,-1.1914 -5.21,0 -8.81,0.39062 -8.81,3.98046 0,2.39846 2.4,3.21876 6.39,3.21876 5.21,0 12.4,0.3906 18.01,1.9922 10.41,3.2109 12.01,14.8086 12.4,49.6094 l 3.61,236.7808 c 0,8.008 1.19,13.61 5.2,13.61 4.39,0 7.99,-5.211 14.78,-12.403 4.81,-5.207 65.61,-70.41 124.01,-128.398 27.2,-27.199 81.21,-84.8008 88,-91.1914 l 2,0 -4.01,179.5704 c -0.39,24.422 -4,32.012 -13.59,36.019 -6,2.403 -15.61,2.403 -21.21,2.403 -4.79,0 -6.39,1.187 -6.39,3.59 0,3.211 4.4,3.621 10.39,3.621 20.8,0 40,-1.211 48.4,-1.211 4.41,0 19.61,1.211 39.2,1.211 5.21,0 9.22,-0.41 9.22,-3.621 0,-2.403 -2.4,-3.59 -7.21,-3.59 -4,0 -7.21,0 -11.99,-1.192 -11.21,-3.199 -14.41,-11.597 -14.82,-34 l -4.4,-252.4098 c 0,-8.80857 -1.6,-12.398419 -5.19,-12.398419 -4.42,0 -9.2,4.398439 -13.6,8.789059 C 2075.55,33.5898 2024.36,86 1982.75,127.211 c -43.59,43.18 -87.98,93.18 -95.19,100.777 l -1.21,0 L 1890.76,60"
         style="fill:#231f20;fill-opacity:1;fill-rule:nonzero;stroke:none"
         id="path6327"
         inkscape:connector-curvature="0" /><path
         d="m 2277.15,148.012 c 0,-42.403 0.41,-73.2112 0.8,-80.8011 0.39,-10 1.21,-26 4.39,-30.4101 5.22,-7.6016 20.8,-16 52.41,-16 40.8,0 68,7.9883 91.99,28.8086 25.6,21.9922 33.59,58.4026 33.59,99.5896 0,50.801 -21.17,83.61 -38.38,100 -36.81,35.192 -82.4,40 -113.59,40 -8.01,0 -22.81,-1.187 -26.02,-2.789 -3.59,-1.621 -4.78,-3.601 -4.78,-8.012 -0.41,-13.597 -0.41,-48.398 -0.41,-80 l 0,-50.386 z m -50,43.976 c 0,60.801 0,72.012 -0.8,84.813 -0.8,13.59 -3.99,20 -17.21,22.808 -3.18,0.782 -10,1.192 -15.6,1.192 -4.38,0 -6.8,0.801 -6.8,3.59 0,2.8 2.81,3.621 8.81,3.621 21.21,0 46.4,-1.211 57.59,-1.211 12.41,0 37.6,1.211 61.61,1.211 50,0 116.79,0 160.41,-45.633 19.98,-20.777 38.79,-53.981 38.79,-101.578 0,-50.391 -21.2,-88.8127 -43.6,-111.6018 -18.42,-18.8086 -60.02,-47.18748 -134,-47.18748 -14.4,0 -30.8,1.1875 -46,2.37891 -15.19,1.21875 -29.2,2.41015 -39.2,2.41015 -4.41,0 -13.2,0 -22.81,-0.39062 -9.18,0 -19.59,-0.80078 -27.6,-0.80078 -5.19,0 -7.99,1.1914 -7.99,3.98046 0,2.01176 1.61,3.21876 6.39,3.21876 6.02,0 10.8,0.7812 14.41,1.6016 7.99,1.6093 10,10.3906 11.61,22 1.99,16.789 1.99,48.3906 1.99,85.1918 l 0,70.386"
         style="fill:#231f20;fill-opacity:1;fill-rule:nonzero;stroke:none"
         id="path6329"
         inkscape:connector-curvature="0" /><path
         d="m 2679.14,130 c 2.01,0 2.42,1.211 2.01,2.398 l -35.99,98.813 c -0.39,1.598 -0.8,3.59 -2.02,3.59 -1.19,0 -1.99,-1.992 -2.4,-3.59 l -36.78,-98.402 c -0.41,-1.598 0,-2.809 1.61,-2.809 l 73.57,0 z m -81.58,-20 c -1.99,0 -2.81,-0.801 -3.6,-3.199 l -21.6,-57.1916 c -4,-10 -5.99,-19.6094 -5.99,-24.4102 0,-7.1875 3.59,-12.3906 15.97,-12.3906 l 6.02,0 c 4.78,0 6,-0.8203 6,-3.21876 0,-3.17968 -2.41,-3.98046 -6.8,-3.98046 -12.79,0 -30,1.1914 -42.4,1.1914 -4.4,0 -26.41,-1.1914 -47.21,-1.1914 -5.2,0 -7.6,0.80078 -7.6,3.98046 0,2.39846 1.6,3.21876 4.81,3.21876 3.59,0 9.2,0.3906 12.4,0.7812 18.4,2.4297 25.99,16.0196 34,36.0196 l 100.39,251.1916 c 4.83,11.578 7.21,16 11.21,16 3.6,0 6,-3.602 9.98,-12.821 9.61,-21.992 73.62,-185.171 99.2,-245.9683 15.22,-36.0234 26.82,-41.6015 35.22,-43.6015 5.99,-1.211 11.99,-1.6016 16.8,-1.6016 3.2,0 5.21,-0.4102 5.21,-3.21876 0,-3.17968 -3.61,-3.98046 -18.42,-3.98046 -14.39,0 -43.59,0 -75.6,0.80078 -7.21,0.39062 -11.98,0.39062 -11.98,3.17968 0,2.39846 1.59,3.21876 5.59,3.60936 2.81,0.8008 5.59,4.4024 3.59,9.1992 l -31.99,84.8126 c -0.8,1.988 -1.99,2.789 -4,2.789 l -89.2,0"
         style="fill:#231f20;fill-opacity:1;fill-rule:nonzero;stroke:none"
         id="path6331"
         inkscape:connector-curvature="0" /><path
         d="M 2868.73,285.609 2809.16,284 c -23.2,-0.801 -32.81,-2.789 -38.81,-11.602 -4,-5.988 -5.99,-10.796 -6.78,-14 -0.82,-3.199 -2.01,-4.808 -4.41,-4.808 -2.81,0 -3.59,2 -3.59,6.41 0,6.41 7.57,42.789 8.39,46 1.2,5.191 2.39,7.59 4.77,7.59 3.24,0 7.23,-4 17.23,-4.781 11.6,-1.207 26.79,-2.008 40,-2.008 l 158.4,0 c 12.81,0 21.6,1.211 27.59,2.008 6,1.191 9.18,1.992 10.8,1.992 2.8,0 3.21,-2.403 3.21,-8.403 0,-8.398 -1.21,-35.988 -1.21,-46.398 -0.39,-3.988 -1.2,-6.391 -3.62,-6.391 -3.18,0 -3.98,1.993 -4.39,7.993 l -0.39,4.386 c -0.78,10.41 -11.6,21.602 -47.19,22.403 l -50.43,1.218 0,-164.007 c 0,-36.8012 0,-68.4028 2.01,-85.602 1.23,-11.1992 3.62,-19.9805 15.63,-21.5898 5.56,-0.8204 14.37,-1.6016 20.39,-1.6016 4.39,0 6.38,-1.207 6.38,-3.21876 0,-2.78906 -3.2,-3.98046 -7.57,-3.98046 -26.43,0 -51.62,1.1914 -62.82,1.1914 -9.21,0 -34.41,-1.1914 -50.41,-1.1914 -5.19,0 -7.98,1.1914 -7.98,3.98046 0,2.01176 1.6,3.21876 6.4,3.21876 6.02,0 10.78,0.7812 14.42,1.6016 7.96,1.6093 10.39,10.3906 11.56,22 1.99,16.789 1.99,48.3906 1.99,85.1918 l 0,164.007"
         style="fill:#231f20;fill-opacity:1;fill-rule:nonzero;stroke:none"
         id="path6333"
         inkscape:connector-curvature="0" /><path
         d="m 3079.55,191.988 c 0,60.801 0,72.012 -0.8,84.813 -0.78,13.59 -4.79,20.39 -13.59,22.398 -4.4,1.192 -9.59,1.602 -14.4,1.602 -3.98,0 -6.4,0.801 -6.4,4 0,2.39 3.2,3.211 9.59,3.211 15.21,0 40.41,-1.211 52.01,-1.211 10,0 33.59,1.211 48.79,1.211 5.19,0 8.39,-0.821 8.39,-3.211 0,-3.199 -2.38,-4 -6.38,-4 -4.01,0 -7.21,-0.41 -11.99,-1.192 -10.82,-2.007 -14.01,-8.808 -14.79,-22.808 -0.84,-12.801 -0.84,-24.012 -0.84,-84.813 l 0,-70.386 c 0,-38.7934 0,-70.4106 1.62,-87.602 1.19,-10.8008 3.99,-17.9805 16.02,-19.5898 5.58,-0.8204 14.37,-1.6016 20.37,-1.6016 4.39,0 6.4,-1.207 6.4,-3.21876 0,-2.78906 -3.2,-3.98046 -7.59,-3.98046 -26.41,0 -51.6,1.1914 -62.41,1.1914 -9.19,0 -34.39,-1.1914 -50.39,-1.1914 -5.21,0 -8,1.1914 -8,3.98046 0,2.01176 1.62,3.21876 6.38,3.21876 6.02,0 10.8,0.7812 14.42,1.6016 8,1.6093 10.39,8.3984 11.6,19.9804 1.99,16.8008 1.99,48.418 1.99,87.2114 l 0,70.386"
         style="fill:#231f20;fill-opacity:1;fill-rule:nonzero;stroke:none"
         id="path6335"
         inkscape:connector-curvature="0" /><path
         d="m 3463.57,149.199 c 0,89.59 -51.62,145.192 -117.22,145.192 -46,0 -98.4,-25.582 -98.4,-125.192 C 3247.95,86 3293.93,20 3370.74,20 c 28.01,0 92.83,13.5898 92.83,129.199 z m -270.82,7.602 c 0,68.398 45.2,156.789 165.2,156.789 99.61,0 161.6,-58 161.6,-149.59 0,-91.6016 -63.98,-164 -165.6,-164 -114.79,0 -161.2,86 -161.2,156.801"
         style="fill:#231f20;fill-opacity:1;fill-rule:nonzero;stroke:none"
         id="path6337"
         inkscape:connector-curvature="0" /><path
         d="m 3605.57,60 c 0.78,-31.2109 5.97,-41.6016 13.98,-44.3906 6.8,-2.4102 14.38,-2.8008 20.8,-2.8008 4.4,0 6.82,-0.8203 6.82,-3.21876 0,-3.17968 -3.63,-3.98046 -9.24,-3.98046 -25.98,0 -41.99,1.1914 -49.59,1.1914 -3.59,0 -22.38,-1.1914 -43.18,-1.1914 -5.22,0 -8.81,0.39062 -8.81,3.98046 0,2.39846 2.42,3.21876 6.38,3.21876 5.22,0 12.41,0.3906 17.99,1.9922 10.41,3.2109 12.03,14.8086 12.42,49.6094 l 3.6,236.7808 c 0,8.008 1.21,13.61 5.21,13.61 4.4,0 7.99,-5.211 14.79,-12.403 4.8,-5.207 65.6,-70.41 124,-128.398 27.21,-27.199 81.19,-84.8008 87.99,-91.1914 l 1.99,0 -3.98,179.5704 c -0.39,24.422 -4.03,32.012 -13.6,36.019 -5.99,2.403 -15.62,2.403 -21.21,2.403 -4.8,0 -6.38,1.187 -6.38,3.59 0,3.211 4.39,3.621 10.39,3.621 20.8,0 40.02,-1.211 48.42,-1.211 4.39,0 19.57,1.211 39.18,1.211 5.19,0 9.21,-0.41 9.21,-3.621 0,-2.403 -2.4,-3.59 -7.2,-3.59 -4.01,0 -7.21,0 -12,-1.192 -11.23,-3.199 -14.39,-11.597 -14.82,-34 l -4.39,-252.4098 c 0,-8.80857 -1.59,-12.398419 -5.2,-12.398419 -4.39,0 -9.2,4.398439 -13.59,8.789059 C 3790.33,33.5898 3739.16,86 3697.56,127.211 c -43.61,43.18 -88.01,93.18 -95.24,100.777 l -1.19,0 L 3605.57,60"
         style="fill:#231f20;fill-opacity:1;fill-rule:nonzero;stroke:none"
         id="path6339"
         inkscape:connector-curvature="0" /><path
         d="m 3836.86,600.629 c 56.25,-108.34 135.62,-144.649 135.62,-144.649 93.05,-47.019 134.38,-45.261 161.27,-45.261 20.61,0 49.71,1.801 77.05,12.109 2.25,0.883 4.06,1.801 5.84,1.801 1.78,0 3.59,-1.801 3.59,-3.59 0,-2.25 -2.24,-3.578 -4.94,-4.949 -23.75,-11.192 -69.43,-30 -126.33,-30 -60.48,0 -98.96,9.32 -167.12,51.531 0,0 -59.98,33.84 -122.89,142.379 l 37.91,20.629"
         style="fill:#231f20;fill-opacity:1;fill-rule:nonzero;stroke:none"
         id="path6341"
         inkscape:connector-curvature="0" /><path
         d="M 1599.38,600.629 C 1655.63,492.289 1735,455.98 1735,455.98 c 93.05,-47.019 134.38,-45.261 161.27,-45.261 20.62,0 49.73,1.801 77.07,12.109 2.23,0.883 4.04,1.801 5.82,1.801 1.8,0 3.59,-1.801 3.59,-3.59 0,-2.25 -2.24,-3.578 -4.92,-4.949 -23.77,-11.192 -69.45,-30 -126.35,-30 -60.48,0 -98.96,9.32 -167.12,51.531 0,0 -59.98,33.84 -122.9,142.379 l 37.92,20.629 z m -75.92,9.781 c 0,-4.41 0.82,-6.019 3.61,-7.211 8.4,-2.789 20.41,-4 30.41,-4 15.98,0 21.19,1.602 28.38,6.801 12.01,8.801 23.61,27.199 23.61,60 0,56.789 -37.61,73.199 -61.21,73.199 -10,0 -17.19,-0.41 -21.19,-1.597 -2.79,-0.801 -3.61,-2.403 -3.61,-5.614 l 0,-121.578 z m 38,-30.41 -34.78,0.801 c 0,0 -3.22,-0.801 -3.22,-3.199 l 0,-5.614 c 0,-37.187 0,-68.789 1.99,-85.578 1.23,-11.609 3.61,-20.39 15.62,-22 6.02,-0.82 14.81,-1.601 19.59,-1.601 3.23,0 4.81,-1.207 4.81,-3.219 0,-2.789 -2.81,-3.981 -7.99,-3.981 -23.2,0 -52.83,1.192 -58.81,1.192 -7.6,0 -32.79,-1.192 -48.81,-1.192 -5.19,0 -8,1.192 -8,3.981 0,2.012 1.62,3.219 6.4,3.219 6,0 10.82,0.781 14.4,1.601 8,1.61 10.02,10.391 11.62,22 2.01,16.789 2.01,48.391 2.01,85.192 l 0,70.386 c 0,60.801 0,72.012 -0.84,84.813 -0.78,13.59 -3.99,20 -17.19,22.808 -3.2,0.782 -10,1.192 -15.58,1.192 -4.42,0 -6.82,0.801 -6.82,3.59 0,2.8 2.83,3.621 8.81,3.621 21.21,0 46.4,-1.211 54.8,-1.211 13.6,0 44.01,1.211 56.41,1.211 25.19,0 51.99,-2.422 73.57,-17.211 11.21,-7.602 27.21,-28.012 27.21,-54.801 0,-29.59 -12.4,-56.801 -52.79,-89.59 l -4.12,-3.988 L 1561.46,580"
         style="fill:#231f20;fill-opacity:1;fill-rule:nonzero;stroke:none"
         id="path6343"
         inkscape:connector-curvature="0" /></g></g></svg>